<svg width="48" height="42" viewBox="0 0 48 42" fill="none" xmlns="http://www.w3.org/2000/svg">
<path fill-rule="evenodd" clip-rule="evenodd" d="M42.1091 21.0023C42.1091 22.9005 43.6678 24.4449 45.5834 24.4449C46.5494 24.4449 47.3334 25.2217 47.3334 26.1789V32.4236C47.3334 37.7043 42.9981 42 37.6688 42H10.3337C5.00442 42 0.666748 37.7043 0.666748 32.4236V26.1789C0.666748 25.2217 1.45075 24.4449 2.41675 24.4449C4.33475 24.4449 5.89341 22.9005 5.89341 21.0023C5.89341 19.1527 4.39775 17.7609 2.41675 17.7609C1.95241 17.7609 1.50908 17.5782 1.18008 17.2522C0.851081 16.9262 0.666748 16.4846 0.666748 16.0269L0.671415 9.57866C0.671415 4.29803 5.00675 0 10.3361 0H37.6641C42.9934 0 47.3311 4.29803 47.3311 9.57866L47.3334 15.8257C47.3334 16.2835 47.1491 16.7274 46.8224 17.0511C46.4934 17.3771 46.0501 17.5597 45.5834 17.5597C43.6678 17.5597 42.1091 19.1042 42.1091 21.0023ZM29.2547 22.5121L32.0057 19.8579C32.4841 19.4001 32.6497 18.725 32.4421 18.1008C32.2367 17.4765 31.7001 17.0326 31.0514 16.9425L27.2504 16.3922L25.5494 12.9797C25.2577 12.3924 24.6651 12.0271 24.0047 12.0248H24.0001C23.3421 12.0248 22.7494 12.3901 22.4531 12.9774L20.7521 16.3922L16.9581 16.9401C16.3024 17.0326 15.7657 17.4765 15.5581 18.1008C15.3527 18.725 15.5184 19.4001 15.9944 19.8579L18.7454 22.5121L18.0967 26.2645C17.9847 26.9119 18.2484 27.5546 18.7851 27.9407C19.0884 28.1557 19.4407 28.2667 19.7977 28.2667C20.0707 28.2667 20.3461 28.1996 20.5981 28.0679L24.0001 26.2969L27.3951 28.0632C27.9831 28.3754 28.6807 28.3268 29.2151 27.9384C29.7541 27.5546 30.0177 26.9119 29.9057 26.2645L29.2547 22.5121Z" fill="#3E99ED"/>
</svg>
