<svg width="40" height="40" viewBox="0 0 40 40" fill="none" xmlns="http://www.w3.org/2000/svg">
<path opacity="0.4" d="M40.0005 19.9998C40.0005 31.0298 31.0285 39.9998 20.0005 39.9998C8.97249 39.9998 0.000488281 31.0298 0.000488281 19.9998C0.000488281 8.97182 8.97249 -0.000183105 20.0005 -0.000183105C31.0285 -0.000183105 40.0005 8.97182 40.0005 19.9998Z" fill="white"/>
<path d="M28.4419 17.115C28.4419 17.497 28.2959 17.881 28.0039 18.173L21.0639 25.147C20.7819 25.429 20.3999 25.587 19.9999 25.587C19.6019 25.587 19.2199 25.429 18.9379 25.147L11.9939 18.173C11.4099 17.587 11.4099 16.639 11.9979 16.053C12.5859 15.469 13.5359 15.471 14.1199 16.057L19.9999 21.963L25.8799 16.057C26.4639 15.471 27.4119 15.469 27.9999 16.053C28.2959 16.345 28.4419 16.731 28.4419 17.115Z" fill="white"/>
</svg>
