<svg width="155" height="44" viewBox="0 0 155 44" fill="none" xmlns="http://www.w3.org/2000/svg">
<path d="M0.9205 43V1.4H11.9285V33.784H27.6725V43H0.9205ZM49.8315 43.768C46.9302 43.768 44.2848 43.2773 41.8955 42.296C39.5488 41.3147 37.5222 39.9067 35.8155 38.072C34.1515 36.1947 32.8502 33.912 31.9115 31.224C30.9728 28.4933 30.5035 25.4213 30.5035 22.008C30.5035 18.5947 30.9728 15.5653 31.9115 12.92C32.8502 10.232 34.1515 7.992 35.8155 6.2C37.5222 4.36533 39.5488 2.97866 41.8955 2.04C44.2848 1.10133 46.9302 0.631996 49.8315 0.631996C52.6902 0.631996 55.3142 1.10133 57.7035 2.04C60.0928 2.97866 62.1195 4.36533 63.7835 6.2C65.4902 8.03467 66.8128 10.2747 67.7515 12.92C68.6902 15.5653 69.1595 18.5947 69.1595 22.008C69.1595 25.4213 68.6902 28.4933 67.7515 31.224C66.8128 33.912 65.4902 36.1947 63.7835 38.072C62.1195 39.9067 60.0928 41.3147 57.7035 42.296C55.3142 43.2773 52.6902 43.768 49.8315 43.768ZM49.8315 34.296C52.3488 34.296 54.3115 33.208 55.7195 31.032C57.1702 28.8133 57.8955 25.8053 57.8955 22.008C57.8955 18.2107 57.1702 15.288 55.7195 13.24C54.3115 11.1493 52.3488 10.104 49.8315 10.104C47.3142 10.104 45.3302 11.1493 43.8795 13.24C42.4715 15.288 41.7675 18.2107 41.7675 22.008C41.7675 25.8053 42.4715 28.8133 43.8795 31.032C45.3302 33.208 47.3142 34.296 49.8315 34.296ZM95.808 43.768C92.9067 43.768 90.176 43.3413 87.616 42.488C85.056 41.592 82.816 40.2693 80.896 38.52C79.0187 36.728 77.5253 34.5093 76.416 31.864C75.3493 29.176 74.816 26.0613 74.816 22.52C74.816 19.0213 75.3707 15.928 76.48 13.24C77.5893 10.5093 79.0827 8.22666 80.96 6.392C82.88 4.51466 85.0987 3.08533 87.616 2.104C90.1333 1.12266 92.7787 0.631996 95.552 0.631996C98.624 0.631996 101.269 1.18666 103.488 2.296C105.749 3.36267 107.627 4.64267 109.12 6.136L103.36 13.176C102.336 12.28 101.248 11.5547 100.096 11C98.9867 10.4027 97.6 10.104 95.936 10.104C94.528 10.104 93.2267 10.3813 92.032 10.936C90.8373 11.4907 89.792 12.28 88.896 13.304C88 14.328 87.296 15.5867 86.784 17.08C86.3147 18.5733 86.08 20.2587 86.08 22.136C86.08 26.0613 86.9547 29.0693 88.704 31.16C90.4533 33.2507 93.2053 34.296 96.96 34.296C97.5573 34.296 98.1333 34.232 98.688 34.104C99.2853 33.976 99.776 33.784 100.16 33.528V27.768H94.016V18.808H109.888V38.648C108.395 40.056 106.411 41.272 103.936 42.296C101.461 43.2773 98.752 43.768 95.808 43.768ZM135.519 43.768C132.618 43.768 129.972 43.2773 127.583 42.296C125.236 41.3147 123.21 39.9067 121.503 38.072C119.839 36.1947 118.538 33.912 117.599 31.224C116.66 28.4933 116.191 25.4213 116.191 22.008C116.191 18.5947 116.66 15.5653 117.599 12.92C118.538 10.232 119.839 7.992 121.503 6.2C123.21 4.36533 125.236 2.97866 127.583 2.04C129.972 1.10133 132.618 0.631996 135.519 0.631996C138.378 0.631996 141.002 1.10133 143.391 2.04C145.78 2.97866 147.807 4.36533 149.471 6.2C151.178 8.03467 152.5 10.2747 153.439 12.92C154.378 15.5653 154.847 18.5947 154.847 22.008C154.847 25.4213 154.378 28.4933 153.439 31.224C152.5 33.912 151.178 36.1947 149.471 38.072C147.807 39.9067 145.78 41.3147 143.391 42.296C141.002 43.2773 138.378 43.768 135.519 43.768ZM135.519 34.296C138.036 34.296 139.999 33.208 141.407 31.032C142.858 28.8133 143.583 25.8053 143.583 22.008C143.583 18.2107 142.858 15.288 141.407 13.24C139.999 11.1493 138.036 10.104 135.519 10.104C133.002 10.104 131.018 11.1493 129.567 13.24C128.159 15.288 127.455 18.2107 127.455 22.008C127.455 25.8053 128.159 28.8133 129.567 31.032C131.018 33.208 133.002 34.296 135.519 34.296Z" fill="#3E99ED"/>
</svg>
