<svg width="42" height="37" viewBox="0 0 42 37" fill="none" xmlns="http://www.w3.org/2000/svg">
<mask id="path-1-outside-1" maskUnits="userSpaceOnUse" x="-0.1521" y="-0.308792" width="42" height="37" fill="black">
<rect fill="white" x="-0.1521" y="-0.308792" width="42" height="37"/>
<path fill-rule="evenodd" clip-rule="evenodd" d="M6.26854 0.935286C6.59398 0.609849 7.12161 0.609849 7.44705 0.935286L9.92193 3.41016C10.2474 3.7356 10.2474 4.26323 9.92193 4.58867C9.59649 4.91411 9.06885 4.91411 8.74341 4.58867L6.26854 2.1138C5.9431 1.78836 5.9431 1.26072 6.26854 0.935286ZM34.5528 0.935286C34.8782 0.609849 35.4059 0.609849 35.7313 0.935286C36.0568 1.26072 36.0568 1.78836 35.7313 2.1138L33.2564 4.58867C32.931 4.91411 32.4034 4.91411 32.0779 4.58867C31.7525 4.26323 31.7525 3.7356 32.0779 3.41016L34.5528 0.935286ZM35.7314 29.2195C36.0568 29.5449 36.0568 30.0726 35.7314 30.398C35.4059 30.7235 34.8783 30.7235 34.5528 30.398L32.078 27.9231C31.7525 27.5977 31.7525 27.0701 32.078 26.7446C32.4034 26.4192 32.931 26.4192 33.2565 26.7446L35.7314 29.2195ZM41.1234 10.2746C41.0043 9.83002 40.5473 9.56621 40.1028 9.68532L36.722 10.5912C36.2775 10.7103 36.0137 11.1673 36.1328 11.6118C36.2519 12.0564 36.7088 12.3202 37.1534 12.2011L40.5341 11.2952C40.9787 11.1761 41.2425 10.7191 41.1234 10.2746ZM40.5341 20.038C40.9787 20.1571 41.2425 20.6141 41.1234 21.0587C41.0043 21.5032 40.5473 21.767 40.1028 21.6479L36.722 20.742C36.2775 20.6229 36.0137 20.166 36.1328 19.7214C36.2519 19.2769 36.7088 19.013 37.1534 19.1322L40.5341 20.038ZM6.26854 29.2195C5.9431 29.5449 5.9431 30.0726 6.26854 30.398C6.59398 30.7235 7.12161 30.7235 7.44705 30.398L9.92192 27.9231C10.2474 27.5977 10.2474 27.0701 9.92192 26.7446C9.59649 26.4192 9.06885 26.4192 8.74341 26.7446L6.26854 29.2195ZM0.876503 10.2746C0.995621 9.83002 1.45257 9.56621 1.89712 9.68532L5.27787 10.5912C5.72242 10.7103 5.98624 11.1673 5.86712 11.6118C5.748 12.0564 5.29105 12.3202 4.8465 12.2011L1.46576 11.2952C1.0212 11.1761 0.757385 10.7191 0.876503 10.2746ZM1.46576 20.038C1.0212 20.1571 0.757384 20.6141 0.876502 21.0587C0.995621 21.5032 1.45257 21.767 1.89712 21.6479L5.27786 20.742C5.72242 20.6229 5.98624 20.166 5.86712 19.7214C5.748 19.2769 5.29105 19.013 4.8465 19.1322L1.46576 20.038ZM20.9999 3.99998C14.5666 3.99998 9.33323 9.23331 9.33323 15.6666C9.33323 19.3021 10.9991 22.5315 13.5996 24.6749L13.6202 24.6919C14.0107 25.0135 14.3332 25.2791 14.3332 26.2005V29C14.3332 29.9166 15.0832 30.6666 15.9999 30.6666C15.9999 30.6667 15.9999 30.6667 15.9999 30.6667L16 30.677H15.9999L15.9999 32.3437C15.9999 34.2577 17.3801 35.677 19.3332 35.677H22.6666C24.5937 35.677 25.9999 34.2447 25.9999 32.3437V30.677H25.9998L25.9999 30.6667C25.9999 30.6667 25.9999 30.6667 25.9999 30.6666C26.9166 30.6666 27.6666 29.9166 27.6666 29V26.2005C27.6666 25.276 27.9608 25.035 28.3462 24.7193L28.4001 24.6749C31.0006 22.5315 32.6666 19.3021 32.6666 15.6666C32.6666 9.23331 27.4332 3.99998 20.9999 3.99998ZM24.3332 30.6666H17.6666C17.6666 30.6667 17.6666 30.6667 17.6666 30.6667L17.6665 30.677H17.6666V32.3437C17.6666 33.177 18.4999 34.0103 19.3332 34.0103L22.6666 34.0103C23.4999 34.0103 24.3332 33.177 24.3332 32.3437V30.677H24.3333L24.3332 30.6667C24.3332 30.6667 24.3332 30.6667 24.3332 30.6666ZM27.0546 23.5963C25.876 24.4685 25.9669 25.7246 25.9948 26.1096C25.9977 26.15 25.9999 26.1807 25.9999 26.2005V28.1605C25.9999 28.6745 25.8046 29 25.2056 29H16.8332C16.2994 29 15.9999 28.7265 15.9999 28.1605V26.2005C15.9999 26.1784 16.0005 26.1503 16.0013 26.1168C16.011 25.6774 16.0412 24.3181 14.9452 23.5963C13.7659 22.8197 10.9999 20.1198 10.9999 15.6666C10.9999 9.80727 15.8827 5.66664 20.9999 5.66664C26.1171 5.66664 30.9999 9.74216 30.9999 15.6666C30.9999 20.0156 28.3567 22.6328 27.0546 23.5963Z"/>
</mask>
<path fill-rule="evenodd" clip-rule="evenodd" d="M6.26854 0.935286C6.59398 0.609849 7.12161 0.609849 7.44705 0.935286L9.92193 3.41016C10.2474 3.7356 10.2474 4.26323 9.92193 4.58867C9.59649 4.91411 9.06885 4.91411 8.74341 4.58867L6.26854 2.1138C5.9431 1.78836 5.9431 1.26072 6.26854 0.935286ZM34.5528 0.935286C34.8782 0.609849 35.4059 0.609849 35.7313 0.935286C36.0568 1.26072 36.0568 1.78836 35.7313 2.1138L33.2564 4.58867C32.931 4.91411 32.4034 4.91411 32.0779 4.58867C31.7525 4.26323 31.7525 3.7356 32.0779 3.41016L34.5528 0.935286ZM35.7314 29.2195C36.0568 29.5449 36.0568 30.0726 35.7314 30.398C35.4059 30.7235 34.8783 30.7235 34.5528 30.398L32.078 27.9231C31.7525 27.5977 31.7525 27.0701 32.078 26.7446C32.4034 26.4192 32.931 26.4192 33.2565 26.7446L35.7314 29.2195ZM41.1234 10.2746C41.0043 9.83002 40.5473 9.56621 40.1028 9.68532L36.722 10.5912C36.2775 10.7103 36.0137 11.1673 36.1328 11.6118C36.2519 12.0564 36.7088 12.3202 37.1534 12.2011L40.5341 11.2952C40.9787 11.1761 41.2425 10.7191 41.1234 10.2746ZM40.5341 20.038C40.9787 20.1571 41.2425 20.6141 41.1234 21.0587C41.0043 21.5032 40.5473 21.767 40.1028 21.6479L36.722 20.742C36.2775 20.6229 36.0137 20.166 36.1328 19.7214C36.2519 19.2769 36.7088 19.013 37.1534 19.1322L40.5341 20.038ZM6.26854 29.2195C5.9431 29.5449 5.9431 30.0726 6.26854 30.398C6.59398 30.7235 7.12161 30.7235 7.44705 30.398L9.92192 27.9231C10.2474 27.5977 10.2474 27.0701 9.92192 26.7446C9.59649 26.4192 9.06885 26.4192 8.74341 26.7446L6.26854 29.2195ZM0.876503 10.2746C0.995621 9.83002 1.45257 9.56621 1.89712 9.68532L5.27787 10.5912C5.72242 10.7103 5.98624 11.1673 5.86712 11.6118C5.748 12.0564 5.29105 12.3202 4.8465 12.2011L1.46576 11.2952C1.0212 11.1761 0.757385 10.7191 0.876503 10.2746ZM1.46576 20.038C1.0212 20.1571 0.757384 20.6141 0.876502 21.0587C0.995621 21.5032 1.45257 21.767 1.89712 21.6479L5.27786 20.742C5.72242 20.6229 5.98624 20.166 5.86712 19.7214C5.748 19.2769 5.29105 19.013 4.8465 19.1322L1.46576 20.038ZM20.9999 3.99998C14.5666 3.99998 9.33323 9.23331 9.33323 15.6666C9.33323 19.3021 10.9991 22.5315 13.5996 24.6749L13.6202 24.6919C14.0107 25.0135 14.3332 25.2791 14.3332 26.2005V29C14.3332 29.9166 15.0832 30.6666 15.9999 30.6666C15.9999 30.6667 15.9999 30.6667 15.9999 30.6667L16 30.677H15.9999L15.9999 32.3437C15.9999 34.2577 17.3801 35.677 19.3332 35.677H22.6666C24.5937 35.677 25.9999 34.2447 25.9999 32.3437V30.677H25.9998L25.9999 30.6667C25.9999 30.6667 25.9999 30.6667 25.9999 30.6666C26.9166 30.6666 27.6666 29.9166 27.6666 29V26.2005C27.6666 25.276 27.9608 25.035 28.3462 24.7193L28.4001 24.6749C31.0006 22.5315 32.6666 19.3021 32.6666 15.6666C32.6666 9.23331 27.4332 3.99998 20.9999 3.99998ZM24.3332 30.6666H17.6666C17.6666 30.6667 17.6666 30.6667 17.6666 30.6667L17.6665 30.677H17.6666V32.3437C17.6666 33.177 18.4999 34.0103 19.3332 34.0103L22.6666 34.0103C23.4999 34.0103 24.3332 33.177 24.3332 32.3437V30.677H24.3333L24.3332 30.6667C24.3332 30.6667 24.3332 30.6667 24.3332 30.6666ZM27.0546 23.5963C25.876 24.4685 25.9669 25.7246 25.9948 26.1096C25.9977 26.15 25.9999 26.1807 25.9999 26.2005V28.1605C25.9999 28.6745 25.8046 29 25.2056 29H16.8332C16.2994 29 15.9999 28.7265 15.9999 28.1605V26.2005C15.9999 26.1784 16.0005 26.1503 16.0013 26.1168C16.011 25.6774 16.0412 24.3181 14.9452 23.5963C13.7659 22.8197 10.9999 20.1198 10.9999 15.6666C10.9999 9.80727 15.8827 5.66664 20.9999 5.66664C26.1171 5.66664 30.9999 9.74216 30.9999 15.6666C30.9999 20.0156 28.3567 22.6328 27.0546 23.5963Z" fill="#59C7FF"/>
<path d="M7.44705 0.935286L7.8006 0.581732V0.581732L7.44705 0.935286ZM6.26854 0.935286L5.91499 0.581732L5.91499 0.581732L6.26854 0.935286ZM9.92193 3.41016L9.56837 3.76371V3.76371L9.92193 3.41016ZM9.92193 4.58867L10.2755 4.94222L10.2755 4.94222L9.92193 4.58867ZM8.74341 4.58867L9.09697 4.23512L9.09697 4.23512L8.74341 4.58867ZM6.26854 2.1138L6.62209 1.76024L6.26854 2.1138ZM35.7313 0.935286L36.0849 0.581733L36.0849 0.581731L35.7313 0.935286ZM34.5528 0.935286L34.9064 1.28884V1.28884L34.5528 0.935286ZM35.7313 2.1138L36.0849 2.46735V2.46735L35.7313 2.1138ZM33.2564 4.58867L33.61 4.94223L33.61 4.94222L33.2564 4.58867ZM32.0779 4.58867L32.4315 4.23512V4.23512L32.0779 4.58867ZM32.0779 3.41016L31.7244 3.05661V3.05661L32.0779 3.41016ZM35.7314 30.398L35.3778 30.0445V30.0445L35.7314 30.398ZM35.7314 29.2195L36.0849 28.866L35.7314 29.2195ZM34.5528 30.398L34.9064 30.0445V30.0445L34.5528 30.398ZM32.078 27.9231L31.7244 28.2767L32.078 27.9231ZM33.2565 26.7446L33.61 26.3911L33.61 26.3911L33.2565 26.7446ZM40.1028 9.68532L39.9734 9.20236L40.1028 9.68532ZM36.722 10.5912L36.5926 10.1082L36.722 10.5912ZM36.1328 11.6118L36.6157 11.4824V11.4824L36.1328 11.6118ZM37.1534 12.2011L37.024 11.7181V11.7181L37.1534 12.2011ZM40.5341 11.2952L40.4047 10.8122L40.5341 11.2952ZM41.1234 21.0587L40.6404 20.9292V20.9292L41.1234 21.0587ZM40.5341 20.038L40.4047 20.521L40.5341 20.038ZM40.1028 21.6479L40.2322 21.1649L40.1028 21.6479ZM36.722 20.742L36.8514 20.2591L36.722 20.742ZM37.1534 19.1322L37.024 19.6151L37.1534 19.1322ZM6.26854 30.398L5.91499 30.7516H5.91499L6.26854 30.398ZM6.26854 29.2195L5.91499 28.866L6.26854 29.2195ZM7.44705 30.398L7.0935 30.0445L7.44705 30.398ZM9.92192 27.9231L9.56837 27.5696L9.92192 27.9231ZM9.92192 26.7446L9.56837 27.0982L9.56837 27.0982L9.92192 26.7446ZM8.74341 26.7446L8.38986 26.3911L8.38986 26.3911L8.74341 26.7446ZM1.89712 9.68532L1.76771 10.1683H1.76771L1.89712 9.68532ZM5.27787 10.5912L5.14846 11.0742H5.14846L5.27787 10.5912ZM4.8465 12.2011L4.97591 11.7181H4.97591L4.8465 12.2011ZM1.46576 11.2952L1.59517 10.8122H1.59517L1.46576 11.2952ZM0.876502 21.0587L1.35947 20.9292H1.35947L0.876502 21.0587ZM1.46576 20.038L1.59517 20.521H1.59517L1.46576 20.038ZM1.89712 21.6479L2.02653 22.1309H2.02653L1.89712 21.6479ZM5.27786 20.742L5.14845 20.2591H5.14845L5.27786 20.742ZM5.86712 19.7214L6.35008 19.592L6.35008 19.592L5.86712 19.7214ZM4.8465 19.1322L4.71709 18.6492H4.71709L4.8465 19.1322ZM13.5996 24.6749L13.2816 25.0608L13.2817 25.0609L13.5996 24.6749ZM13.6202 24.6919L13.3023 25.0778L13.3023 25.0778L13.6202 24.6919ZM15.9999 30.6666H16.4999V30.1666H15.9999V30.6666ZM15.9999 30.6667H15.4999L15.4999 30.6697L15.9999 30.6667ZM16 30.677V31.177H16.503L16.5 30.6739L16 30.677ZM15.9999 30.677V30.177H15.4999V30.677H15.9999ZM15.9999 32.3437H16.4999H15.9999ZM25.9999 30.677H26.4999V30.177H25.9999V30.677ZM25.9998 30.677L25.4998 30.6739L25.4967 31.177H25.9998V30.677ZM25.9999 30.6667L26.4999 30.6698V30.6667H25.9999ZM25.9999 30.6666V30.1666H25.4999V30.6666H25.9999ZM28.3462 24.7193L28.663 25.106L28.6634 25.1057L28.3462 24.7193ZM28.4001 24.6749L28.7174 25.0614L28.7182 25.0608L28.4001 24.6749ZM24.3332 30.6666H24.8332V30.1666H24.3332V30.6666ZM17.6666 30.6666V30.1666H17.1666V30.6666H17.6666ZM17.6666 30.6667L18.1666 30.6696V30.6667H17.6666ZM17.6665 30.677L17.1665 30.674L17.1635 31.177H17.6665V30.677ZM17.6666 30.677H18.1666V30.177H17.6666V30.677ZM19.3332 34.0103V34.5103V34.0103ZM22.6666 34.0103V33.5103V34.0103ZM24.3332 30.677V30.177H23.8332V30.677H24.3332ZM24.3333 30.677V31.177H24.8363L24.8333 30.6739L24.3333 30.677ZM24.3332 30.6667H23.8332L23.8332 30.6697L24.3332 30.6667ZM25.9948 26.1096L26.4934 26.0735V26.0735L25.9948 26.1096ZM27.0546 23.5963L27.352 23.9983H27.352L27.0546 23.5963ZM16.0013 26.1168L16.5011 26.1279V26.1279L16.0013 26.1168ZM14.9452 23.5963L14.6702 24.0139L14.9452 23.5963ZM7.8006 0.581732C7.27991 0.0610332 6.43569 0.0610331 5.91499 0.581732L6.62209 1.28884C6.75227 1.15866 6.96332 1.15866 7.0935 1.28884L7.8006 0.581732ZM10.2755 3.05661L7.8006 0.581732L7.0935 1.28884L9.56837 3.76371L10.2755 3.05661ZM10.2755 4.94222C10.7962 4.42153 10.7962 3.57731 10.2755 3.05661L9.56837 3.76371C9.69855 3.89389 9.69855 4.10494 9.56837 4.23512L10.2755 4.94222ZM8.38986 4.94222C8.91056 5.46292 9.75478 5.46292 10.2755 4.94222L9.56837 4.23512C9.4382 4.36529 9.22714 4.36529 9.09697 4.23512L8.38986 4.94222ZM5.91499 2.46735L8.38986 4.94222L9.09697 4.23512L6.62209 1.76024L5.91499 2.46735ZM5.91499 0.581732C5.39429 1.10243 5.39429 1.94665 5.91499 2.46735L6.62209 1.76024C6.49192 1.63007 6.49192 1.41901 6.62209 1.28884L5.91499 0.581732ZM36.0849 0.581731C35.5642 0.0610346 34.7199 0.0610318 34.1992 0.581733L34.9064 1.28884C35.0365 1.15867 35.2476 1.15866 35.3778 1.28884L36.0849 0.581731ZM36.0849 2.46735C36.6056 1.94665 36.6056 1.10243 36.0849 0.581733L35.3778 1.28884C35.5079 1.41901 35.5079 1.63007 35.3778 1.76024L36.0849 2.46735ZM33.61 4.94222L36.0849 2.46735L35.3778 1.76024L32.9029 4.23512L33.61 4.94222ZM31.7244 4.94222C32.2451 5.46293 33.0893 5.46292 33.61 4.94223L32.9029 4.23512C32.7727 4.36529 32.5617 4.36529 32.4315 4.23512L31.7244 4.94222ZM31.7244 3.05661C31.2037 3.57731 31.2037 4.42153 31.7244 4.94222L32.4315 4.23512C32.3013 4.10494 32.3013 3.89389 32.4315 3.76371L31.7244 3.05661ZM34.1992 0.581732L31.7244 3.05661L32.4315 3.76371L34.9064 1.28884L34.1992 0.581732ZM36.0849 30.7516C36.6056 30.2309 36.6056 29.3867 36.0849 28.866L35.3778 29.5731C35.508 29.7032 35.508 29.9143 35.3778 30.0445L36.0849 30.7516ZM34.1993 30.7516C34.72 31.2723 35.5642 31.2723 36.0849 30.7516L35.3778 30.0445C35.2476 30.1746 35.0366 30.1746 34.9064 30.0445L34.1993 30.7516ZM31.7244 28.2767L34.1993 30.7516L34.9064 30.0445L32.4315 27.5696L31.7244 28.2767ZM31.7244 26.3911C31.2037 26.9118 31.2037 27.756 31.7244 28.2767L32.4315 27.5696C32.3013 27.4394 32.3013 27.2284 32.4315 27.0982L31.7244 26.3911ZM33.61 26.3911C33.0893 25.8704 32.2451 25.8704 31.7244 26.3911L32.4315 27.0982C32.5617 26.968 32.7728 26.968 32.9029 27.0982L33.61 26.3911ZM36.0849 28.866L33.61 26.3911L32.9029 27.0982L35.3778 29.5731L36.0849 28.866ZM40.2322 10.1683C40.41 10.1206 40.5928 10.2262 40.6404 10.404L41.6064 10.1452C41.4158 9.43388 40.6846 9.01177 39.9734 9.20236L40.2322 10.1683ZM36.8514 11.0742L40.2322 10.1683L39.9734 9.20236L36.5926 10.1082L36.8514 11.0742ZM36.6157 11.4824C36.5681 11.3046 36.6736 11.1218 36.8514 11.0742L36.5926 10.1082C35.8813 10.2988 35.4592 11.0299 35.6498 11.7412L36.6157 11.4824ZM37.024 11.7181C36.8462 11.7658 36.6634 11.6602 36.6157 11.4824L35.6498 11.7412C35.8404 12.4525 36.5715 12.8746 37.2828 12.684L37.024 11.7181ZM40.4047 10.8122L37.024 11.7181L37.2828 12.684L40.6635 11.7782L40.4047 10.8122ZM40.6404 10.404C40.6881 10.5818 40.5825 10.7646 40.4047 10.8122L40.6635 11.7782C41.3748 11.5876 41.7969 10.8565 41.6064 10.1452L40.6404 10.404ZM41.6064 21.1881C41.7969 20.4768 41.3748 19.7457 40.6635 19.5551L40.4047 20.521C40.5825 20.5686 40.6881 20.7514 40.6404 20.9292L41.6064 21.1881ZM39.9734 22.1309C40.6847 22.3215 41.4158 21.8993 41.6064 21.1881L40.6404 20.9292C40.5928 21.1071 40.41 21.2126 40.2322 21.1649L39.9734 22.1309ZM36.5926 21.225L39.9734 22.1309L40.2322 21.1649L36.8514 20.2591L36.5926 21.225ZM35.6498 19.592C35.4592 20.3033 35.8813 21.0344 36.5926 21.225L36.8514 20.2591C36.6736 20.2114 36.5681 20.0287 36.6157 19.8508L35.6498 19.592ZM37.2828 18.6492C36.5715 18.4586 35.8404 18.8807 35.6498 19.592L36.6157 19.8508C36.6634 19.673 36.8462 19.5675 37.024 19.6151L37.2828 18.6492ZM40.6635 19.5551L37.2828 18.6492L37.024 19.6151L40.4047 20.521L40.6635 19.5551ZM6.62209 30.0445C6.49192 29.9143 6.49192 29.7032 6.62209 29.5731L5.91499 28.866C5.39429 29.3867 5.39429 30.2309 5.91499 30.7516L6.62209 30.0445ZM7.0935 30.0445C6.96332 30.1746 6.75227 30.1746 6.62209 30.0445L5.91499 30.7516C6.43568 31.2723 7.2799 31.2723 7.8006 30.7516L7.0935 30.0445ZM9.56837 27.5696L7.0935 30.0445L7.8006 30.7516L10.2755 28.2767L9.56837 27.5696ZM9.56837 27.0982C9.69854 27.2284 9.69855 27.4394 9.56837 27.5696L10.2755 28.2767C10.7962 27.756 10.7962 26.9118 10.2755 26.3911L9.56837 27.0982ZM9.09697 27.0982C9.22714 26.968 9.4382 26.968 9.56837 27.0982L10.2755 26.3911C9.75478 25.8704 8.91056 25.8704 8.38986 26.3911L9.09697 27.0982ZM6.62209 29.5731L9.09697 27.0982L8.38986 26.3911L5.91499 28.866L6.62209 29.5731ZM2.02653 9.20236C1.31525 9.01177 0.584129 9.43388 0.39354 10.1452L1.35947 10.404C1.40711 10.2262 1.58989 10.1206 1.76771 10.1683L2.02653 9.20236ZM5.40727 10.1082L2.02653 9.20236L1.76771 10.1683L5.14846 11.0742L5.40727 10.1082ZM6.35008 11.7412C6.54067 11.0299 6.11856 10.2988 5.40727 10.1082L5.14846 11.0742C5.32628 11.1218 5.4318 11.3046 5.38416 11.4824L6.35008 11.7412ZM4.71709 12.684C5.42838 12.8746 6.15949 12.4525 6.35008 11.7412L5.38416 11.4824C5.33651 11.6602 5.15373 11.7658 4.97591 11.7181L4.71709 12.684ZM1.33635 11.7782L4.71709 12.684L4.97591 11.7181L1.59517 10.8122L1.33635 11.7782ZM0.39354 10.1452C0.202951 10.8565 0.62506 11.5876 1.33635 11.7782L1.59517 10.8122C1.41735 10.7646 1.31182 10.5818 1.35947 10.404L0.39354 10.1452ZM1.35947 20.9292C1.31182 20.7514 1.41735 20.5686 1.59517 20.521L1.33635 19.5551C0.62506 19.7457 0.20295 20.4768 0.39354 21.1881L1.35947 20.9292ZM1.76771 21.1649C1.58989 21.2126 1.40711 21.1071 1.35947 20.9292L0.393539 21.1881C0.584128 21.8993 1.31524 22.3215 2.02653 22.1309L1.76771 21.1649ZM5.14845 20.2591L1.76771 21.1649L2.02653 22.1309L5.40727 21.225L5.14845 20.2591ZM5.38416 19.8508C5.4318 20.0287 5.32628 20.2114 5.14845 20.2591L5.40727 21.225C6.11856 21.0344 6.54067 20.3033 6.35008 19.592L5.38416 19.8508ZM4.97591 19.6151C5.15373 19.5675 5.33651 19.673 5.38416 19.8508L6.35008 19.592C6.15949 18.8807 5.42838 18.4586 4.71709 18.6492L4.97591 19.6151ZM1.59517 20.521L4.97591 19.6151L4.71709 18.6492L1.33635 19.5551L1.59517 20.521ZM9.83323 15.6666C9.83323 9.50945 14.8427 4.49998 20.9999 4.49998V3.49998C14.2904 3.49998 8.83323 8.95717 8.83323 15.6666H9.83323ZM13.9177 24.2891C11.4263 22.2356 9.83323 19.145 9.83323 15.6666H8.83323C8.83323 19.4592 10.572 22.8274 13.2816 25.0608L13.9177 24.2891ZM13.9381 24.3059L13.9175 24.289L13.2817 25.0609L13.3023 25.0778L13.9381 24.3059ZM14.8332 26.2005C14.8332 25.681 14.742 25.2897 14.555 24.9692C14.3738 24.6589 14.1247 24.4596 13.938 24.3059L13.3023 25.0778C13.5062 25.2457 13.6136 25.3401 13.6913 25.4733C13.7632 25.5964 13.8332 25.7986 13.8332 26.2005H14.8332ZM14.8332 29V26.2005H13.8332V29H14.8332ZM15.9999 30.1666C15.3594 30.1666 14.8332 29.6405 14.8332 29H13.8332C13.8332 30.1928 14.8071 31.1666 15.9999 31.1666V30.1666ZM15.4999 30.6666C15.4999 30.7083 15.5051 30.7445 15.5114 30.7735C15.5177 30.8022 15.5255 30.8256 15.5317 30.8422C15.5379 30.8588 15.5438 30.8717 15.5472 30.8789C15.5489 30.8827 15.5504 30.8857 15.5513 30.8875C15.5517 30.8884 15.5521 30.8891 15.5523 30.8896C15.5525 30.8898 15.5525 30.89 15.5526 30.8901C15.5526 30.8902 15.5527 30.8902 15.5527 30.8902C15.5527 30.8902 15.5527 30.8903 15.5527 30.8903C15.5527 30.8903 15.5527 30.8903 15.5527 30.8903C15.5527 30.8903 15.5527 30.8903 15.5527 30.8903C15.5528 30.8905 15.5521 30.8891 15.5513 30.8875C15.5504 30.8857 15.5489 30.8827 15.5472 30.8789C15.5438 30.8717 15.5379 30.8588 15.5317 30.8422C15.5255 30.8256 15.5177 30.8022 15.5115 30.7735C15.5051 30.7446 15.4999 30.7084 15.4999 30.6667H16.4999C16.4999 30.625 16.4947 30.5888 16.4884 30.5598C16.4821 30.5311 16.4743 30.5077 16.4681 30.4911C16.4619 30.4746 16.456 30.4617 16.4526 30.4545C16.4509 30.4507 16.4494 30.4477 16.4485 30.4459C16.4481 30.4449 16.4477 30.4442 16.4475 30.4438C16.4474 30.4435 16.4473 30.4433 16.4472 30.4432C16.4472 30.4432 16.4472 30.4431 16.4471 30.4431C16.4471 30.4431 16.4471 30.4431 16.4471 30.4431C16.4471 30.4431 16.4471 30.4431 16.4471 30.4431C16.4471 30.4431 16.4471 30.4431 16.4471 30.4431C16.447 30.4428 16.4477 30.4442 16.4485 30.4459C16.4494 30.4477 16.4509 30.4507 16.4526 30.4544C16.456 30.4616 16.4619 30.4745 16.4681 30.4911C16.4743 30.5077 16.4821 30.5311 16.4883 30.5598C16.4947 30.5888 16.4999 30.6249 16.4999 30.6666H15.4999ZM15.4999 30.6697L15.5 30.68L16.5 30.6739L16.4999 30.6636L15.4999 30.6697ZM16 30.177H15.9999V31.177H16V30.177ZM15.4999 30.677L15.4999 32.3437H16.4999L16.4999 30.677H15.4999ZM15.4999 32.3437C15.4999 34.53 17.1001 36.177 19.3332 36.177V35.177C17.6601 35.177 16.4999 33.9855 16.4999 32.3437H15.4999ZM19.3332 36.177H22.6666V35.177H19.3332V36.177ZM22.6666 36.177C24.8724 36.177 26.4999 34.5183 26.4999 32.3437H25.4999C25.4999 33.9711 24.3149 35.177 22.6666 35.177V36.177ZM26.4999 32.3437V30.677H25.4999V32.3437H26.4999ZM25.9999 30.177H25.9998V31.177H25.9999V30.177ZM26.4998 30.6801L26.4999 30.6698L25.4999 30.6635L25.4998 30.6739L26.4998 30.6801ZM26.4999 30.6667C26.4999 30.6564 26.4996 30.6476 26.4992 30.6408C26.4989 30.6339 26.4984 30.6281 26.4981 30.624C26.4977 30.6198 26.4974 30.6164 26.4972 30.6145C26.4971 30.6135 26.497 30.6127 26.4969 30.6122C26.4969 30.612 26.4969 30.6118 26.4969 30.6116C26.4969 30.6116 26.4968 30.6115 26.4968 30.6115C26.4968 30.6115 26.4968 30.6115 26.4968 30.6115C26.4968 30.6114 26.4968 30.6114 26.4968 30.6114V30.6114C26.4968 30.6112 26.497 30.6127 26.4972 30.6145C26.4974 30.6164 26.4977 30.6198 26.4981 30.6239C26.4984 30.6281 26.4989 30.6339 26.4992 30.6408C26.4996 30.6476 26.4999 30.6564 26.4999 30.6666H25.4999C25.4999 30.6769 25.5002 30.6857 25.5006 30.6925C25.5009 30.6994 25.5014 30.7052 25.5017 30.7094C25.5021 30.7135 25.5024 30.7169 25.5026 30.7188C25.5027 30.7198 25.5028 30.7206 25.5029 30.7211C25.5029 30.7214 25.5029 30.7216 25.5029 30.7217C25.5029 30.7217 25.5029 30.7218 25.5029 30.7218C25.503 30.7218 25.503 30.7219 25.503 30.7219C25.503 30.7219 25.503 30.7219 25.503 30.7219C25.503 30.7219 25.503 30.7219 25.503 30.7219C25.503 30.7219 25.503 30.7219 25.503 30.7219C25.503 30.7221 25.5028 30.7206 25.5026 30.7188C25.5024 30.7169 25.5021 30.7135 25.5017 30.7094C25.5014 30.7052 25.5009 30.6994 25.5006 30.6926C25.5002 30.6857 25.4999 30.6769 25.4999 30.6667H26.4999ZM27.1666 29C27.1666 29.6405 26.6404 30.1666 25.9999 30.1666V31.1666C27.1927 31.1666 28.1666 30.1928 28.1666 29H27.1666ZM27.1666 26.2005V29H28.1666V26.2005H27.1666ZM28.0293 24.3325C27.8457 24.4829 27.6012 24.6767 27.4266 24.9855C27.2479 25.3016 27.1666 25.6874 27.1666 26.2005H28.1666C28.1666 25.7891 28.2324 25.5922 28.2971 25.4777C28.366 25.3559 28.4612 25.2714 28.663 25.106L28.0293 24.3325ZM28.0829 24.2885L28.0289 24.3328L28.6634 25.1057L28.7174 25.0614L28.0829 24.2885ZM32.1666 15.6666C32.1666 19.145 30.5735 22.2356 28.0821 24.2891L28.7182 25.0608C31.4278 22.8274 33.1666 19.4592 33.1666 15.6666H32.1666ZM20.9999 4.49998C27.1571 4.49998 32.1666 9.50945 32.1666 15.6666H33.1666C33.1666 8.95717 27.7094 3.49998 20.9999 3.49998V4.49998ZM24.3332 30.1666H17.6666V31.1666H24.3332V30.1666ZM18.1666 30.6667C18.1666 30.6667 18.1666 30.6667 18.1666 30.6667V30.6667C18.1666 30.6667 18.1666 30.6667 18.1666 30.6667V30.6667C18.1666 30.6667 18.1666 30.6667 18.1666 30.6667C18.1666 30.6667 18.1666 30.6667 18.1666 30.6667V30.6667C18.1666 30.6667 18.1666 30.6667 18.1666 30.6667C18.1666 30.6667 18.1666 30.6667 18.1666 30.6667V30.6667C18.1666 30.6667 18.1666 30.6667 18.1666 30.6667V30.6667C18.1666 30.6667 18.1666 30.6667 18.1666 30.6667C18.1666 30.6667 18.1666 30.6667 18.1666 30.6667V30.6667C18.1666 30.6667 18.1666 30.6667 18.1666 30.6667V30.6667C18.1666 30.6667 18.1666 30.6667 18.1666 30.6666C18.1666 30.6666 18.1666 30.6666 18.1666 30.6666V30.6666C18.1666 30.6666 18.1666 30.6666 18.1666 30.6666H17.1666C17.1666 30.6666 17.1666 30.6666 17.1666 30.6666V30.6666C17.1666 30.6666 17.1666 30.6666 17.1666 30.6666C17.1666 30.6667 17.1666 30.6667 17.1666 30.6667V30.6667C17.1666 30.6667 17.1666 30.6667 17.1666 30.6667V30.6667C17.1666 30.6667 17.1666 30.6667 17.1666 30.6667C17.1666 30.6667 17.1666 30.6667 17.1666 30.6667V30.6667C17.1666 30.6667 17.1666 30.6667 17.1666 30.6667V30.6667C17.1666 30.6667 17.1666 30.6667 17.1666 30.6667C17.1666 30.6667 17.1666 30.6667 17.1666 30.6667V30.6667C17.1666 30.6667 17.1666 30.6667 17.1666 30.6667C17.1666 30.6667 17.1666 30.6667 17.1666 30.6667V30.6667C17.1666 30.6667 17.1666 30.6667 17.1666 30.6667V30.6667C17.1666 30.6667 17.1666 30.6667 17.1666 30.6667H18.1666ZM18.1665 30.68L18.1666 30.6696L17.1666 30.6637L17.1665 30.674L18.1665 30.68ZM17.6666 30.177H17.6665V31.177H17.6666V30.177ZM18.1666 32.3437V30.677H17.1666V32.3437H18.1666ZM19.3332 33.5103C19.0792 33.5103 18.7833 33.3783 18.541 33.1359C18.2986 32.8936 18.1666 32.5977 18.1666 32.3437H17.1666C17.1666 32.9229 17.4512 33.4604 17.8339 33.843C18.2165 34.2257 18.754 34.5103 19.3332 34.5103V33.5103ZM22.6666 33.5103L19.3332 33.5103V34.5103L22.6666 34.5103V33.5103ZM23.8332 32.3437C23.8332 32.5977 23.7012 32.8936 23.4589 33.1359C23.2165 33.3783 22.9206 33.5103 22.6666 33.5103V34.5103C23.2459 34.5103 23.7833 34.2257 24.166 33.843C24.5486 33.4604 24.8332 32.9229 24.8332 32.3437H23.8332ZM23.8332 30.677V32.3437H24.8332V30.677H23.8332ZM24.3333 30.177H24.3332V31.177H24.3333V30.177ZM23.8332 30.6697L23.8333 30.68L24.8333 30.6739L24.8332 30.6636L23.8332 30.6697ZM23.8332 30.6666C23.8332 30.6666 23.8332 30.6666 23.8332 30.6666C23.8332 30.6666 23.8332 30.6666 23.8332 30.6666C23.8332 30.6666 23.8332 30.6666 23.8332 30.6666V30.6667C23.8332 30.6667 23.8332 30.6667 23.8332 30.6667V30.6667V30.6667V30.6667V30.6667C23.8332 30.6667 23.8332 30.6667 23.8332 30.6667C23.8332 30.6667 23.8332 30.6667 23.8332 30.6667V30.6667C23.8332 30.6667 23.8332 30.6667 23.8332 30.6667H24.8332C24.8332 30.6667 24.8332 30.6667 24.8332 30.6667V30.6667C24.8332 30.6667 24.8332 30.6667 24.8332 30.6667C24.8332 30.6667 24.8332 30.6667 24.8332 30.6667V30.6667V30.6667V30.6667V30.6667C24.8332 30.6667 24.8332 30.6667 24.8332 30.6667V30.6666C24.8332 30.6666 24.8332 30.6666 24.8332 30.6666C24.8332 30.6666 24.8332 30.6666 24.8332 30.6666C24.8332 30.6666 24.8332 30.6666 24.8332 30.6666H23.8332ZM26.4934 26.0735C26.4666 25.7021 26.4023 24.701 27.352 23.9983L26.7572 23.1944C25.3497 24.2359 25.4672 25.7472 25.4961 26.1457L26.4934 26.0735ZM26.4999 26.2005C26.4999 26.1579 26.4957 26.1042 26.4934 26.0735L25.4961 26.1457C25.4976 26.1668 25.4986 26.1813 25.4993 26.193C25.4997 26.1985 25.4998 26.2019 25.4999 26.2038C25.5 26.2059 25.4999 26.2044 25.4999 26.2005H26.4999ZM26.4999 28.1605V26.2005H25.4999V28.1605H26.4999ZM25.2056 29.5C25.5934 29.5 25.9575 29.3921 26.2084 29.0967C26.4449 28.8183 26.4999 28.4652 26.4999 28.1605H25.4999C25.4999 28.3698 25.4573 28.4364 25.4463 28.4493C25.4432 28.4529 25.4351 28.4623 25.4065 28.4731C25.3739 28.4853 25.3119 28.5 25.2056 28.5V29.5ZM16.8332 29.5H25.2056V28.5H16.8332V29.5ZM15.4999 28.1605C15.4999 28.5279 15.5982 28.8861 15.866 29.1492C16.1321 29.4106 16.4863 29.5 16.8332 29.5V28.5C16.6463 28.5 16.5839 28.4526 16.5668 28.4358C16.5513 28.4206 16.4999 28.3591 16.4999 28.1605H15.4999ZM15.4999 26.2005V28.1605H16.4999V26.2005H15.4999ZM15.5014 26.1057C15.5007 26.1371 15.4999 26.1716 15.4999 26.2005H16.4999C16.4999 26.1852 16.5003 26.1635 16.5011 26.1279L15.5014 26.1057ZM14.6702 24.0139C15.5096 24.5667 15.5118 25.6341 15.5014 26.1058L16.5011 26.1279C16.5102 25.7207 16.5727 24.0694 15.2202 23.1787L14.6702 24.0139ZM10.4999 15.6666C10.4999 20.3368 13.3968 23.1753 14.6702 24.0139L15.2202 23.1787C14.1349 22.4641 11.4999 19.9028 11.4999 15.6666H10.4999ZM20.9999 5.16664C15.631 5.16664 10.4999 9.50733 10.4999 15.6666H11.4999C11.4999 10.1072 16.1344 6.16664 20.9999 6.16664V5.16664ZM31.4999 15.6666C31.4999 9.44011 26.3666 5.16664 20.9999 5.16664V6.16664C25.8676 6.16664 30.4999 10.0442 30.4999 15.6666H31.4999ZM27.352 23.9983C28.7217 22.9847 31.4999 20.2361 31.4999 15.6666H30.4999C30.4999 19.7951 27.9917 22.2809 26.7572 23.1944L27.352 23.9983Z" fill="#59C7FF" mask="url(#path-1-outside-1)"/>
</svg>
