<svg width="37" height="35" viewBox="0 0 37 35" fill="none" xmlns="http://www.w3.org/2000/svg">
<mask id="path-1-outside-1" maskUnits="userSpaceOnUse" x="-0.333252" y="0.233582" width="37" height="34" fill="black">
<rect fill="white" x="-0.333252" y="0.233582" width="37" height="34"/>
<path fill-rule="evenodd" clip-rule="evenodd" d="M10.7703 29.7107C12.8169 30.9503 14.862 32.189 16.9688 33.4063C17.2741 33.5827 17.5345 33.6611 17.7566 33.6605C17.7651 33.6605 17.7746 33.6604 17.7851 33.6604C17.7864 33.6605 17.7878 33.6605 17.7891 33.6605C17.8504 33.6605 17.9348 33.6604 18.0267 33.6604C18.0722 33.6604 18.1196 33.6604 18.167 33.6604C18.2185 33.6604 18.2703 33.6604 18.3199 33.6604C18.4117 33.6604 18.4961 33.6605 18.5574 33.6605C18.5588 33.6605 18.5603 33.6605 18.5617 33.6604C18.5721 33.6604 18.5815 33.6605 18.5899 33.6605C18.812 33.661 19.0724 33.5826 19.3777 33.4063C21.4872 32.1875 23.5318 30.9472 25.5779 29.706C27.8038 28.3558 30.0314 27.0044 32.3464 25.6784C34.4037 24.5 35.6668 23.4974 35.6667 21.2969C35.6667 20.1587 35.6633 15.976 35.6599 11.9396C35.6568 8.17224 35.6537 4.53238 35.6537 3.61463C35.6537 1.71359 33.9154 0.476667 31.7279 1.75918C30.7511 2.3319 28.7914 3.52134 26.7661 4.75061C24.2561 6.27405 21.6454 7.85865 20.6798 8.40632C20.5198 8.49702 20.3612 8.58521 20.205 8.67205C19.4201 9.10846 18.6962 9.51095 18.1733 10.0284C17.6503 9.51095 16.9264 9.10846 16.1415 8.67205C15.9853 8.58521 15.8267 8.49702 15.6667 8.40632C14.6967 7.85613 12.0623 6.25946 9.53821 4.7296C7.52237 3.5078 5.57685 2.32862 4.60555 1.75916C2.41805 0.476647 0.679769 1.71356 0.679769 3.61461C0.679769 4.53215 0.676739 8.17055 0.673602 11.937C0.67024 15.9742 0.666755 20.1585 0.666748 21.2969C0.666734 23.4974 1.92977 24.5 3.98706 25.6784C6.30473 27.0059 8.53844 28.3589 10.7703 29.7107ZM2.33341 21.2969V4.03127C2.33341 2.75523 3.23185 2.74221 4.0131 3.19794L15.6667 9.94273C16.5652 10.4375 17.3334 10.8803 17.3334 11.7136V30.3334C17.3334 31.1667 16.6238 31.2969 15.6667 30.737L4.00008 23.9857C2.61336 23.211 2.33341 22.1303 2.33341 21.2969ZM34.0131 21.2969V4.03127C34.0131 2.75523 33.1147 2.74221 32.3334 3.19794L20.6798 9.94273C19.7813 10.4375 19.0131 10.8803 19.0131 11.7136V30.3334C19.0131 31.1667 19.7227 31.2969 20.6798 30.737L32.3464 23.9857C33.7332 23.211 34.0131 22.1303 34.0131 21.2969Z"/>
</mask>
<path fill-rule="evenodd" clip-rule="evenodd" d="M10.7703 29.7107C12.8169 30.9503 14.862 32.189 16.9688 33.4063C17.2741 33.5827 17.5345 33.6611 17.7566 33.6605C17.7651 33.6605 17.7746 33.6604 17.7851 33.6604C17.7864 33.6605 17.7878 33.6605 17.7891 33.6605C17.8504 33.6605 17.9348 33.6604 18.0267 33.6604C18.0722 33.6604 18.1196 33.6604 18.167 33.6604C18.2185 33.6604 18.2703 33.6604 18.3199 33.6604C18.4117 33.6604 18.4961 33.6605 18.5574 33.6605C18.5588 33.6605 18.5603 33.6605 18.5617 33.6604C18.5721 33.6604 18.5815 33.6605 18.5899 33.6605C18.812 33.661 19.0724 33.5826 19.3777 33.4063C21.4872 32.1875 23.5318 30.9472 25.5779 29.706C27.8038 28.3558 30.0314 27.0044 32.3464 25.6784C34.4037 24.5 35.6668 23.4974 35.6667 21.2969C35.6667 20.1587 35.6633 15.976 35.6599 11.9396C35.6568 8.17224 35.6537 4.53238 35.6537 3.61463C35.6537 1.71359 33.9154 0.476667 31.7279 1.75918C30.7511 2.3319 28.7914 3.52134 26.7661 4.75061C24.2561 6.27405 21.6454 7.85865 20.6798 8.40632C20.5198 8.49702 20.3612 8.58521 20.205 8.67205C19.4201 9.10846 18.6962 9.51095 18.1733 10.0284C17.6503 9.51095 16.9264 9.10846 16.1415 8.67205C15.9853 8.58521 15.8267 8.49702 15.6667 8.40632C14.6967 7.85613 12.0623 6.25946 9.53821 4.7296C7.52237 3.5078 5.57685 2.32862 4.60555 1.75916C2.41805 0.476647 0.679769 1.71356 0.679769 3.61461C0.679769 4.53215 0.676739 8.17055 0.673602 11.937C0.67024 15.9742 0.666755 20.1585 0.666748 21.2969C0.666734 23.4974 1.92977 24.5 3.98706 25.6784C6.30473 27.0059 8.53844 28.3589 10.7703 29.7107ZM2.33341 21.2969V4.03127C2.33341 2.75523 3.23185 2.74221 4.0131 3.19794L15.6667 9.94273C16.5652 10.4375 17.3334 10.8803 17.3334 11.7136V30.3334C17.3334 31.1667 16.6238 31.2969 15.6667 30.737L4.00008 23.9857C2.61336 23.211 2.33341 22.1303 2.33341 21.2969ZM34.0131 21.2969V4.03127C34.0131 2.75523 33.1147 2.74221 32.3334 3.19794L20.6798 9.94273C19.7813 10.4375 19.0131 10.8803 19.0131 11.7136V30.3334C19.0131 31.1667 19.7227 31.2969 20.6798 30.737L32.3464 23.9857C33.7332 23.211 34.0131 22.1303 34.0131 21.2969Z" fill="#F28FBB"/>
<path d="M16.9688 33.4063L17.219 32.9734L16.9688 33.4063ZM10.7703 29.7107L11.0293 29.283V29.283L10.7703 29.7107ZM17.7566 33.6605L17.7579 34.1605H17.758L17.7566 33.6605ZM17.7851 33.6604L17.7977 33.1604L17.7843 33.1604L17.7851 33.6604ZM18.0267 33.6604L18.0269 34.1604H18.0269L18.0267 33.6604ZM18.167 33.6604L18.1671 33.1604H18.1668L18.167 33.6604ZM18.3199 33.6604L18.3201 33.1604H18.32L18.3199 33.6604ZM18.5617 33.6604L18.5625 33.1604L18.5549 33.1604L18.5473 33.1606L18.5617 33.6604ZM18.5899 33.6605L18.5885 34.1605H18.5886L18.5899 33.6605ZM19.3777 33.4063L19.6278 33.8392H19.6278L19.3777 33.4063ZM25.5779 29.706L25.3185 29.2785L25.5779 29.706ZM32.3464 25.6784L32.0979 25.2446L32.3464 25.6784ZM35.6667 21.2969L35.1667 21.2969L35.6667 21.2969ZM35.6599 11.9396L35.1599 11.94V11.94L35.6599 11.9396ZM31.7279 1.75918L31.4751 1.32785V1.32785L31.7279 1.75918ZM26.7661 4.75061L27.0255 5.17804L26.7661 4.75061ZM20.6798 8.40632L20.4331 7.9714H20.4331L20.6798 8.40632ZM20.205 8.67205L19.9621 8.23505V8.23505L20.205 8.67205ZM18.1733 10.0284L17.8216 10.3838L18.1733 10.7318L18.5249 10.3838L18.1733 10.0284ZM16.1415 8.67205L15.8985 9.10905L15.8985 9.10905L16.1415 8.67205ZM15.6667 8.40632L15.9134 7.9714L15.9134 7.9714L15.6667 8.40632ZM9.53821 4.7296L9.27905 5.15719L9.53821 4.7296ZM4.60555 1.75916L4.35266 2.19049L4.60555 1.75916ZM0.673602 11.937L0.173602 11.9366L0.673602 11.937ZM0.666748 21.2969L0.166748 21.2969L0.666748 21.2969ZM3.98706 25.6784L3.73855 26.1123H3.73855L3.98706 25.6784ZM4.0131 3.19794L3.76117 3.62983L3.76264 3.63068L4.0131 3.19794ZM15.6667 9.94273L15.4162 10.3756L15.4255 10.3807L15.6667 9.94273ZM15.6667 30.737L15.9192 30.3055L15.9172 30.3043L15.6667 30.737ZM4.00008 23.9857L4.25054 23.5529L4.24395 23.5492L4.00008 23.9857ZM32.3334 3.19794L32.5839 3.63069L32.5853 3.62983L32.3334 3.19794ZM20.6798 9.94273L20.921 10.3808L20.9302 10.3755L20.6798 9.94273ZM20.6798 30.737L20.4293 30.3043L20.4273 30.3055L20.6798 30.737ZM32.3464 23.9857L32.1025 23.5492L32.096 23.553L32.3464 23.9857ZM17.219 32.9734C15.1173 31.7591 13.0766 30.5231 11.0293 29.283L10.5113 30.1384C12.5572 31.3776 14.6067 32.6189 16.7187 33.8392L17.219 32.9734ZM17.7553 33.1605C17.6509 33.1608 17.478 33.123 17.219 32.9734L16.7187 33.8392C17.0701 34.0423 17.4182 34.1614 17.7579 34.1605L17.7553 33.1605ZM17.7843 33.1604C17.7737 33.1604 17.764 33.1605 17.7553 33.1605L17.758 34.1605C17.7662 34.1605 17.7755 34.1604 17.7858 34.1604L17.7843 33.1604ZM17.7724 34.1603C17.7775 34.1604 17.7831 34.1605 17.7891 34.1605V33.1605C17.7924 33.1605 17.7953 33.1605 17.7977 33.1606L17.7724 34.1603ZM17.7891 34.1605C17.8505 34.1605 17.935 34.1604 18.0269 34.1604L18.0265 33.1604C17.9345 33.1604 17.8503 33.1605 17.7891 33.1605V34.1605ZM18.0269 34.1604C18.0724 34.1604 18.1198 34.1604 18.1672 34.1604L18.1668 33.1604C18.1194 33.1604 18.072 33.1604 18.0265 33.1604L18.0269 34.1604ZM18.32 33.1604C18.2705 33.1604 18.2187 33.1604 18.1671 33.1604L18.1668 34.1604C18.2183 34.1604 18.27 34.1604 18.3197 34.1604L18.32 33.1604ZM18.5574 33.1605C18.4962 33.1605 18.412 33.1604 18.3201 33.1604L18.3196 34.1604C18.4115 34.1604 18.496 34.1605 18.5574 34.1605V33.1605ZM18.5473 33.1606C18.5511 33.1605 18.5545 33.1605 18.5574 33.1605V34.1605C18.5632 34.1605 18.5695 34.1604 18.5762 34.1602L18.5473 33.1606ZM18.561 34.1604C18.5712 34.1604 18.5804 34.1605 18.5885 34.1605L18.5913 33.1605C18.5826 33.1605 18.573 33.1604 18.5625 33.1604L18.561 34.1604ZM18.5886 34.1605C18.9283 34.1613 19.2764 34.0423 19.6278 33.8392L19.1275 32.9734C18.8685 33.123 18.6956 33.1607 18.5912 33.1605L18.5886 34.1605ZM19.6278 33.8392C21.7427 32.6173 23.7918 31.3743 25.8372 30.1335L25.3185 29.2785C23.2717 30.5201 21.2317 31.7576 19.1275 32.9734L19.6278 33.8392ZM25.8372 30.1335C28.0639 28.7828 30.2863 27.4347 32.5949 26.1123L32.0979 25.2446C29.7766 26.5742 27.5436 27.9288 25.3185 29.2785L25.8372 30.1335ZM32.5949 26.1123C33.626 25.5217 34.5245 24.9402 35.1588 24.1951C35.8132 23.4264 36.1668 22.5089 36.1667 21.2969L35.1667 21.2969C35.1668 22.2855 34.8888 22.9695 34.3974 23.5469C33.8858 24.1478 33.1242 24.6567 32.0979 25.2446L32.5949 26.1123ZM36.1667 21.2969C36.1667 20.1585 36.1633 15.9754 36.1599 11.9392L35.1599 11.94C35.1633 15.9766 35.1667 20.159 35.1667 21.2969L36.1667 21.2969ZM36.1599 11.9392C36.1568 8.17163 36.1537 4.53211 36.1537 3.61463H35.1537C35.1537 4.53266 35.1568 8.17286 35.1599 11.94L36.1599 11.9392ZM36.1537 3.61463C36.1537 2.51184 35.6445 1.54217 34.7507 1.05422C33.8515 0.56325 32.6798 0.621535 31.4751 1.32785L31.9808 2.19051C32.9636 1.61431 33.7548 1.6498 34.2715 1.93192C34.7938 2.21706 35.1537 2.81637 35.1537 3.61463H36.1537ZM31.4751 1.32785C30.494 1.90304 28.5299 3.09518 26.5067 4.32318L27.0255 5.17804C29.0529 3.94751 31.0082 2.76077 31.9808 2.19051L31.4751 1.32785ZM26.5067 4.32318C23.9918 5.84962 21.3903 7.42848 20.4331 7.9714L20.9264 8.84124C21.9004 8.28882 24.5205 6.69847 27.0255 5.17804L26.5067 4.32318ZM20.4331 7.9714C20.2753 8.06089 20.1186 8.14805 19.9621 8.23505L20.448 9.10905C20.6039 9.02236 20.7644 8.93316 20.9264 8.84124L20.4331 7.9714ZM19.9621 8.23505C19.1941 8.66203 18.4031 9.09761 17.8216 9.67298L18.5249 10.3838C18.9893 9.9243 19.6461 9.55489 20.448 9.10905L19.9621 8.23505ZM15.8985 9.10905C16.7004 9.55489 17.3572 9.9243 17.8216 10.3838L18.5249 9.67298C17.9434 9.09761 17.1524 8.66203 16.3844 8.23505L15.8985 9.10905ZM15.4201 8.84124C15.5821 8.93316 15.7426 9.02236 15.8985 9.10905L16.3844 8.23505C16.228 8.14805 16.0712 8.06089 15.9134 7.9714L15.4201 8.84124ZM9.27905 5.15719C11.7983 6.68411 14.4418 8.2864 15.4201 8.84124L15.9134 7.9714C14.9516 7.42587 12.3263 5.83481 9.79737 4.302L9.27905 5.15719ZM4.35266 2.19049C5.31992 2.75759 7.26122 3.93418 9.27905 5.15719L9.79737 4.302C7.78353 3.08142 5.83377 1.89966 4.85844 1.32783L4.35266 2.19049ZM1.17977 3.61461C1.17977 2.81635 1.53968 2.21704 2.06194 1.9319C2.57869 1.64978 3.36987 1.61429 4.35266 2.19049L4.85844 1.32783C3.65373 0.621515 2.48202 0.563229 1.58275 1.0542C0.688996 1.54215 0.179769 2.51182 0.179769 3.61461H1.17977ZM1.1736 11.9374C1.17674 8.17116 1.17977 4.53243 1.17977 3.61461H0.179769C0.179769 4.53188 0.176739 8.16994 0.173602 11.9366L1.1736 11.9374ZM1.16675 21.2969C1.16676 20.1588 1.17024 15.9748 1.1736 11.9374L0.173602 11.9366C0.17024 15.9736 0.166755 20.1582 0.166748 21.2969L1.16675 21.2969ZM4.23557 25.2445C3.20934 24.6567 2.44767 24.1477 1.93614 23.5469C1.44468 22.9695 1.16674 22.2855 1.16675 21.2969L0.166748 21.2969C0.166741 22.5089 0.520315 23.4264 1.17468 24.1951C1.809 24.9402 2.70749 25.5217 3.73855 26.1123L4.23557 25.2445ZM11.0293 29.283C8.79826 27.9317 6.5594 26.5756 4.23557 25.2445L3.73855 26.1123C6.05007 27.4363 8.27863 28.7861 10.5113 30.1384L11.0293 29.283ZM1.83341 4.03127V21.2969H2.83341V4.03127H1.83341ZM4.26504 2.76605C3.83043 2.51253 3.25055 2.31739 2.72434 2.49013C2.44221 2.58275 2.2058 2.77352 2.04895 3.05578C1.89827 3.32695 1.83341 3.6587 1.83341 4.03127H2.83341C2.83341 3.76583 2.88087 3.61743 2.92306 3.54151C2.95908 3.47668 2.9961 3.45342 3.03624 3.44025C3.15456 3.4014 3.41453 3.42762 3.76117 3.62983L4.26504 2.76605ZM15.9172 9.50999L4.26356 2.76519L3.76264 3.63068L15.4163 10.3755L15.9172 9.50999ZM17.8334 11.7136C17.8334 11.1148 17.5469 10.6709 17.1733 10.3312C16.8175 10.0077 16.3458 9.74591 15.908 9.50477L15.4255 10.3807C15.8861 10.6344 16.2478 10.8413 16.5007 11.0712C16.7358 11.2849 16.8334 11.479 16.8334 11.7136H17.8334ZM17.8334 30.3334V11.7136H16.8334V30.3334H17.8334ZM15.4143 31.1686C15.9279 31.4691 16.4841 31.6543 16.9686 31.5455C17.2298 31.4868 17.4627 31.3424 17.6219 31.1066C17.7751 30.8798 17.8334 30.6087 17.8334 30.3334H16.8334C16.8334 30.4747 16.803 30.5324 16.7932 30.5469C16.7895 30.5524 16.7852 30.5618 16.7494 30.5698C16.6397 30.5945 16.3627 30.5649 15.9192 30.3055L15.4143 31.1686ZM3.74965 24.4185L15.4163 31.1698L15.9172 30.3043L4.25051 23.553L3.74965 24.4185ZM1.83341 21.2969C1.83341 21.7689 1.9127 22.3316 2.20247 22.8927C2.49453 23.4583 2.98451 23.9911 3.75622 24.4222L4.24395 23.5492C3.62893 23.2056 3.28558 22.8107 3.09099 22.4339C2.8941 22.0526 2.83341 21.6583 2.83341 21.2969H1.83341ZM33.5131 4.03127V21.2969H34.5131V4.03127H33.5131ZM32.5853 3.62983C32.932 3.42762 33.192 3.40141 33.3103 3.44025C33.3504 3.45343 33.3874 3.47669 33.4235 3.54151C33.4656 3.61743 33.5131 3.76583 33.5131 4.03127H34.5131C34.5131 3.6587 34.4482 3.32695 34.2976 3.05578C34.1407 2.77352 33.9043 2.58275 33.6222 2.49014C33.096 2.31739 32.5161 2.51253 32.0815 2.76605L32.5853 3.62983ZM20.9302 10.3755L32.5839 3.63069L32.0829 2.76519L20.4293 9.50999L20.9302 10.3755ZM19.5131 11.7136C19.5131 11.479 19.6107 11.2849 19.8459 11.0712C20.0987 10.8413 20.4604 10.6344 20.921 10.3807L20.4386 9.50477C20.0007 9.74591 19.529 10.0077 19.1732 10.3312C18.7996 10.6709 18.5131 11.1148 18.5131 11.7136H19.5131ZM19.5131 30.3334V11.7136H18.5131V30.3334H19.5131ZM20.4273 30.3055C19.9839 30.5649 19.7068 30.5945 19.5971 30.5698C19.5613 30.5618 19.557 30.5524 19.5533 30.5469C19.5435 30.5324 19.5131 30.4747 19.5131 30.3334H18.5131C18.5131 30.6087 18.5714 30.8798 18.7246 31.1066C18.8838 31.3424 19.1167 31.4868 19.3779 31.5455C19.8624 31.6543 20.4186 31.4691 20.9322 31.1686L20.4273 30.3055ZM32.096 23.553L20.4293 30.3043L20.9302 31.1698L32.5969 24.4185L32.096 23.553ZM33.5131 21.2969C33.5131 21.6583 33.4524 22.0526 33.2555 22.4339C33.0609 22.8107 32.7176 23.2056 32.1026 23.5492L32.5903 24.4222C33.362 23.9911 33.852 23.4583 34.144 22.8927C34.4338 22.3316 34.5131 21.7689 34.5131 21.2969H33.5131Z" fill="#F28FBB" mask="url(#path-1-outside-1)"/>
</svg>
