<svg width="36" height="38" viewBox="0 0 36 38" fill="none" xmlns="http://www.w3.org/2000/svg">
<mask id="path-1-outside-1" maskUnits="userSpaceOnUse" x="0.296875" y="-0.28125" width="35" height="39" fill="black">
<rect fill="white" x="0.296875" y="-0.28125" width="35" height="39"/>
<path fill-rule="evenodd" clip-rule="evenodd" d="M4.24291 29.3153C4.57008 13.4924 17.7513 0.71875 33.9058 0.71875C34.3258 0.71875 34.6666 1.05419 34.6666 1.46747C34.6666 4.6584 34.1189 7.84785 33.0371 10.946C32.9778 11.1182 32.856 11.2634 32.6948 11.3533L27.6419 14.1954H30.4597C30.7274 14.1954 30.9754 14.3346 31.1139 14.5607C31.2508 14.7853 31.2569 15.0668 31.1306 15.2989C26.0226 24.6227 16.2504 30.4735 5.53177 30.662C4.18923 32.9089 3.26646 35.0152 2.92183 36.8646C2.79402 37.1476 2.34671 37.3262 2.05765 37.3262C1.95417 37.3262 1.84769 37.3048 1.74577 37.2592C1.36235 37.0873 1.1919 36.6369 1.36385 36.2535C1.68528 34.2011 2.7188 31.8338 4.24291 29.3153ZM6.49676 29.1301C15.8462 28.6429 24.3281 23.6169 29.1512 15.6927H24.7769C24.4315 15.6927 24.1303 15.4651 24.0421 15.1357C23.9538 14.8078 24.0998 14.4634 24.3996 14.2927L31.6891 10.1942C32.4384 7.97662 32.9014 5.71253 33.0716 3.43873C24.8195 8.87304 12.5862 19.9168 6.49676 29.1301ZM32.0101 2.27853C25.051 6.27092 12.6803 17.1445 5.94447 26.7212C7.48733 13.5549 18.449 3.17016 32.0101 2.27853Z"/>
</mask>
<path fill-rule="evenodd" clip-rule="evenodd" d="M4.24291 29.3153C4.57008 13.4924 17.7513 0.71875 33.9058 0.71875C34.3258 0.71875 34.6666 1.05419 34.6666 1.46747C34.6666 4.6584 34.1189 7.84785 33.0371 10.946C32.9778 11.1182 32.856 11.2634 32.6948 11.3533L27.6419 14.1954H30.4597C30.7274 14.1954 30.9754 14.3346 31.1139 14.5607C31.2508 14.7853 31.2569 15.0668 31.1306 15.2989C26.0226 24.6227 16.2504 30.4735 5.53177 30.662C4.18923 32.9089 3.26646 35.0152 2.92183 36.8646C2.79402 37.1476 2.34671 37.3262 2.05765 37.3262C1.95417 37.3262 1.84769 37.3048 1.74577 37.2592C1.36235 37.0873 1.1919 36.6369 1.36385 36.2535C1.68528 34.2011 2.7188 31.8338 4.24291 29.3153ZM6.49676 29.1301C15.8462 28.6429 24.3281 23.6169 29.1512 15.6927H24.7769C24.4315 15.6927 24.1303 15.4651 24.0421 15.1357C23.9538 14.8078 24.0998 14.4634 24.3996 14.2927L31.6891 10.1942C32.4384 7.97662 32.9014 5.71253 33.0716 3.43873C24.8195 8.87304 12.5862 19.9168 6.49676 29.1301ZM32.0101 2.27853C25.051 6.27092 12.6803 17.1445 5.94447 26.7212C7.48733 13.5549 18.449 3.17016 32.0101 2.27853Z" fill="#F7BB4E"/>
<path d="M4.24291 29.3153L4.67067 29.5742L4.74003 29.4596L4.7428 29.3257L4.24291 29.3153ZM33.0371 10.946L32.565 10.7812L32.5644 10.7831L33.0371 10.946ZM32.6948 11.3533L32.4514 10.9165L32.4496 10.9175L32.6948 11.3533ZM27.6419 14.1954L27.3968 13.7596L25.733 14.6954H27.6419V14.1954ZM31.1139 14.5607L31.5408 14.3004L31.5403 14.2996L31.1139 14.5607ZM31.1306 15.2989L31.5691 15.5391L31.5698 15.5379L31.1306 15.2989ZM5.53177 30.662L5.52298 30.1621L5.2451 30.1669L5.10255 30.4055L5.53177 30.662ZM2.92183 36.8646L3.37751 37.0704L3.40232 37.0154L3.41337 36.9562L2.92183 36.8646ZM1.74577 37.2592L1.54124 37.7154L1.54139 37.7155L1.74577 37.2592ZM1.36385 36.2535L1.82007 36.4581L1.84747 36.397L1.85783 36.3309L1.36385 36.2535ZM29.1512 15.6927L29.5783 15.9527L30.0409 15.1927H29.1512V15.6927ZM6.49676 29.1301L6.07964 28.8544L5.53332 29.681L6.52278 29.6294L6.49676 29.1301ZM24.0421 15.1357L24.525 15.0064L24.5249 15.0057L24.0421 15.1357ZM24.3996 14.2927L24.1545 13.8568L24.1522 13.8582L24.3996 14.2927ZM31.6891 10.1942L31.9341 10.6301L32.1013 10.5361L32.1628 10.3543L31.6891 10.1942ZM33.0716 3.43873L33.5702 3.47603L33.6461 2.46172L32.7966 3.02114L33.0716 3.43873ZM32.0101 2.27853L32.2589 2.71222L31.9773 1.7796L32.0101 2.27853ZM5.94447 26.7212L5.44787 26.663L6.35344 27.0088L5.94447 26.7212ZM33.9058 0.21875C17.4859 0.21875 4.07595 13.2033 3.74302 29.305L4.7428 29.3257C5.06421 13.7814 18.0167 1.21875 33.9058 1.21875V0.21875ZM35.1666 1.46747C35.1666 0.770553 34.5944 0.21875 33.9058 0.21875V1.21875C34.0572 1.21875 34.1666 1.33783 34.1666 1.46747H35.1666ZM33.5091 11.1108C34.6089 7.96113 35.1666 4.71602 35.1666 1.46747H34.1666C34.1666 4.60077 33.6288 7.73456 32.565 10.7812L33.5091 11.1108ZM32.9381 11.7901C33.206 11.6408 33.41 11.3985 33.5098 11.1088L32.5644 10.7831C32.5455 10.8379 32.506 10.8861 32.4514 10.9165L32.9381 11.7901ZM27.887 14.6312L32.9399 11.7891L32.4496 10.9175L27.3968 13.7596L27.887 14.6312ZM30.4597 13.6954H27.6419V14.6954H30.4597V13.6954ZM31.5403 14.2996C31.3107 13.9246 30.9008 13.6954 30.4597 13.6954V14.6954C30.554 14.6954 30.6402 14.7446 30.6875 14.8218L31.5403 14.2996ZM31.5698 15.5379C31.7806 15.1505 31.7714 14.6788 31.5408 14.3004L30.687 14.821C30.7302 14.8919 30.7333 14.9831 30.6915 15.0599L31.5698 15.5379ZM5.54056 31.1619C16.4361 30.9703 26.3736 25.0226 31.5691 15.5391L30.6921 15.0587C25.6716 24.2228 16.0647 29.9767 5.52298 30.1621L5.54056 31.1619ZM3.41337 36.9562C3.74269 35.189 4.63312 33.1408 5.96099 30.9184L5.10255 30.4055C3.74534 32.677 2.79024 34.8414 2.43029 36.773L3.41337 36.9562ZM2.05765 37.8262C2.29012 37.8262 2.54889 37.7585 2.76955 37.6508C2.98167 37.5473 3.24489 37.364 3.37751 37.0704L2.46614 36.6588C2.47062 36.6488 2.46918 36.6579 2.44372 36.6803C2.41892 36.702 2.38112 36.7276 2.33087 36.7522C2.22366 36.8045 2.11424 36.8262 2.05765 36.8262V37.8262ZM1.54139 37.7155C1.70918 37.7907 1.88549 37.8262 2.05765 37.8262V36.8262C2.02285 36.8262 1.98619 36.819 1.95015 36.8029L1.54139 37.7155ZM0.907629 36.0489C0.623169 36.6832 0.90469 37.4301 1.54124 37.7154L1.9503 36.8029C1.82002 36.7445 1.76063 36.5907 1.82007 36.4581L0.907629 36.0489ZM3.81514 29.0564C2.2764 31.599 1.20581 34.0311 0.869872 36.1761L1.85783 36.3309C2.16475 34.3711 3.16119 32.0685 4.67067 29.5742L3.81514 29.0564ZM28.7241 15.4328C23.988 23.214 15.6572 28.1521 6.47074 28.6308L6.52278 29.6294C16.0351 29.1338 24.6682 24.0198 29.5783 15.9527L28.7241 15.4328ZM24.7769 16.1927H29.1512V15.1927H24.7769V16.1927ZM23.5591 15.2651C23.7072 15.8183 24.2106 16.1927 24.7769 16.1927V15.1927C24.6525 15.1927 24.5533 15.112 24.525 15.0064L23.5591 15.2651ZM24.1522 13.8582C23.659 14.139 23.4105 14.7131 23.5593 15.2657L24.5249 15.0057C24.4971 14.9025 24.5406 14.7877 24.647 14.7271L24.1522 13.8582ZM31.444 9.7584L24.1545 13.8568L24.6446 14.7285L31.9341 10.6301L31.444 9.7584ZM32.573 3.40142C32.406 5.63239 31.9517 7.85527 31.2154 10.0342L32.1628 10.3543C32.9252 8.09796 33.3968 5.79267 33.5702 3.47603L32.573 3.40142ZM6.91389 29.4058C12.9567 20.263 25.1349 9.26403 33.3466 3.85631L32.7966 3.02114C24.5041 8.48205 12.2157 19.5705 6.07964 28.8544L6.91389 29.4058ZM31.7613 1.84483C24.7366 5.87488 12.3119 16.7992 5.5355 26.4335L6.35344 27.0088C13.0487 17.4899 25.3655 6.66696 32.2589 2.71222L31.7613 1.84483ZM6.44107 26.7793C7.95534 13.857 18.7181 3.65355 32.0429 2.77745L31.9773 1.7796C18.18 2.68677 7.01931 13.2528 5.44787 26.663L6.44107 26.7793Z" fill="#F7BB4E" mask="url(#path-1-outside-1)"/>
</svg>
