<svg width="30" height="37" viewBox="0 0 30 37" fill="none" xmlns="http://www.w3.org/2000/svg">
<mask id="path-1-outside-1" maskUnits="userSpaceOnUse" x="-0.130127" y="0" width="30" height="37" fill="black">
<rect fill="white" x="-0.130127" width="30" height="37"/>
<path fill-rule="evenodd" clip-rule="evenodd" d="M23.6667 36H25.3333C27.2865 36 28.6667 34.5221 28.6667 32.6667V4.33333C28.6667 2.41927 27.2865 1 25.3333 1H23.6667C21.7396 1 20.3333 2.43229 20.3333 4.33333V4.73589C19.8534 4.47751 19.2891 4.33336 18.6667 4.33336H17C15.0729 4.33336 13.6667 5.76565 13.6667 7.66669V9.17211C13.2912 8.85531 12.8287 8.61221 12.2914 8.46826L10.6816 8.03689C8.82013 7.53813 7.0911 8.55765 6.59907 10.3939L0.991324 31.3223C0.506033 33.1334 1.51208 34.9128 3.34835 35.4048L4.95823 35.8362C6.8448 36.3417 8.56047 35.2714 9.04071 33.4791L13.6667 16.2148V32.6667C13.6667 34.5417 15.099 36 17 36H18.6667C19.7037 36 20.5792 35.5834 21.1723 34.9149C21.7733 35.5857 22.6534 36 23.6667 36ZM20.3333 7.6636V32.6667C20.3333 32.6676 20.3333 32.6685 20.3333 32.6694C20.3316 33.5018 19.4991 34.3334 18.6667 34.3334H17C16.1667 34.3334 15.3333 33.5 15.3333 32.6667V7.66669C15.3333 6.83336 16.1667 6.00003 17 6.00003H18.6667C19.499 6.00003 20.3313 6.8313 20.3333 7.6636ZM22 32.6686C22.0013 33.5013 22.834 34.3333 23.6667 34.3333H25.3333C26.1667 34.3333 27 33.5 27 32.6667V4.33333C27 3.5 26.1667 2.66667 25.3333 2.66667H23.6667C22.8333 2.66667 22 3.5 22 4.33333V7.6628C22 7.66409 22 7.66539 22 7.66669L22 32.6667L22 32.6667C22 32.6673 22 32.6679 22 32.6686ZM8.20895 10.8253L2.6012 31.7537C2.38552 32.5586 2.97477 33.5792 3.77971 33.7949L5.38959 34.2263C6.19453 34.442 7.21515 33.8527 7.43083 33.0478L13.0386 12.1194C13.2543 11.3144 12.665 10.2938 11.8601 10.0781L10.2502 9.64677C9.44525 9.43109 8.42463 10.0203 8.20895 10.8253Z"/>
</mask>
<path fill-rule="evenodd" clip-rule="evenodd" d="M23.6667 36H25.3333C27.2865 36 28.6667 34.5221 28.6667 32.6667V4.33333C28.6667 2.41927 27.2865 1 25.3333 1H23.6667C21.7396 1 20.3333 2.43229 20.3333 4.33333V4.73589C19.8534 4.47751 19.2891 4.33336 18.6667 4.33336H17C15.0729 4.33336 13.6667 5.76565 13.6667 7.66669V9.17211C13.2912 8.85531 12.8287 8.61221 12.2914 8.46826L10.6816 8.03689C8.82013 7.53813 7.0911 8.55765 6.59907 10.3939L0.991324 31.3223C0.506033 33.1334 1.51208 34.9128 3.34835 35.4048L4.95823 35.8362C6.8448 36.3417 8.56047 35.2714 9.04071 33.4791L13.6667 16.2148V32.6667C13.6667 34.5417 15.099 36 17 36H18.6667C19.7037 36 20.5792 35.5834 21.1723 34.9149C21.7733 35.5857 22.6534 36 23.6667 36ZM20.3333 7.6636V32.6667C20.3333 32.6676 20.3333 32.6685 20.3333 32.6694C20.3316 33.5018 19.4991 34.3334 18.6667 34.3334H17C16.1667 34.3334 15.3333 33.5 15.3333 32.6667V7.66669C15.3333 6.83336 16.1667 6.00003 17 6.00003H18.6667C19.499 6.00003 20.3313 6.8313 20.3333 7.6636ZM22 32.6686C22.0013 33.5013 22.834 34.3333 23.6667 34.3333H25.3333C26.1667 34.3333 27 33.5 27 32.6667V4.33333C27 3.5 26.1667 2.66667 25.3333 2.66667H23.6667C22.8333 2.66667 22 3.5 22 4.33333V7.6628C22 7.66409 22 7.66539 22 7.66669L22 32.6667L22 32.6667C22 32.6673 22 32.6679 22 32.6686ZM8.20895 10.8253L2.6012 31.7537C2.38552 32.5586 2.97477 33.5792 3.77971 33.7949L5.38959 34.2263C6.19453 34.442 7.21515 33.8527 7.43083 33.0478L13.0386 12.1194C13.2543 11.3144 12.665 10.2938 11.8601 10.0781L10.2502 9.64677C9.44525 9.43109 8.42463 10.0203 8.20895 10.8253Z" fill="#FA385D"/>
<path d="M20.3333 4.73589L20.0963 5.17615L20.8333 5.57292V4.73589H20.3333ZM13.6667 9.17211L13.3442 9.55424L14.1667 10.2483V9.17211H13.6667ZM12.2914 8.46826L12.162 8.95122L12.2914 8.46826ZM10.6816 8.03689L10.5521 8.51985L10.6816 8.03689ZM6.59907 10.3939L6.11611 10.2645L6.59907 10.3939ZM0.991324 31.3223L1.47429 31.4517L1.47429 31.4517L0.991324 31.3223ZM3.34835 35.4048L3.21894 35.8878H3.21894L3.34835 35.4048ZM4.95823 35.8362L4.82882 36.3191L4.95823 35.8362ZM9.04071 33.4791L8.55774 33.3497H8.55774L9.04071 33.4791ZM13.6667 16.2148H14.1667L13.1837 16.0854L13.6667 16.2148ZM13.6667 32.6667L14.1667 32.6667V32.6667H13.6667ZM21.1723 34.9149L21.5447 34.5812L21.1705 34.1635L20.7983 34.583L21.1723 34.9149ZM20.3333 7.6636H20.8333L20.8333 7.66237L20.3333 7.6636ZM20.3333 32.6694L20.8333 32.6704V32.6694H20.3333ZM22 32.6686H21.5V32.6693L22 32.6686ZM22 7.66669H22.5H22ZM22 32.6667H21.5V32.6845L21.5013 32.7023L22 32.6667ZM22 32.6667H22.5V32.6489L22.4987 32.6311L22 32.6667ZM2.6012 31.7537L3.08416 31.8831L2.6012 31.7537ZM8.20895 10.8253L8.69191 10.9547L8.20895 10.8253ZM3.77971 33.7949L3.6503 34.2779H3.6503L3.77971 33.7949ZM5.38959 34.2263L5.26018 34.7092H5.26019L5.38959 34.2263ZM7.43083 33.0478L6.94787 32.9184H6.94787L7.43083 33.0478ZM13.0386 12.1194L12.5556 11.99L13.0386 12.1194ZM11.8601 10.0781L11.7307 10.5611L11.8601 10.0781ZM10.2502 9.64677L10.3796 9.16381H10.3796L10.2502 9.64677ZM25.3333 35.5H23.6667V36.5H25.3333V35.5ZM28.1667 32.6667C28.1667 34.2557 27.0007 35.5 25.3333 35.5V36.5C27.5722 36.5 29.1667 34.7886 29.1667 32.6667H28.1667ZM28.1667 4.33333V32.6667H29.1667V4.33333H28.1667ZM25.3333 1.5C27.0064 1.5 28.1667 2.69151 28.1667 4.33333H29.1667C29.1667 2.14703 27.5665 0.5 25.3333 0.5V1.5ZM23.6667 1.5H25.3333V0.5H23.6667V1.5ZM20.8333 4.33333C20.8333 2.70585 22.0183 1.5 23.6667 1.5V0.5C21.4609 0.5 19.8333 2.15874 19.8333 4.33333H20.8333ZM20.8333 4.73589V4.33333H19.8333V4.73589H20.8333ZM20.5703 4.29563C20.0136 3.99591 19.3672 3.83336 18.6667 3.83336V4.83336C19.211 4.83336 19.6932 4.95911 20.0963 5.17615L20.5703 4.29563ZM18.6667 3.83336H17V4.83336H18.6667V3.83336ZM17 3.83336C14.7942 3.83336 13.1667 5.49209 13.1667 7.66669H14.1667C14.1667 6.03921 15.3516 4.83336 17 4.83336V3.83336ZM13.1667 7.66669V9.17211H14.1667V7.66669H13.1667ZM13.9891 8.78998C13.5547 8.42337 13.0253 8.14727 12.4208 7.98529L12.162 8.95122C12.632 9.07715 13.0278 9.28725 13.3442 9.55424L13.9891 8.78998ZM12.4208 7.98529L10.811 7.55393L10.5521 8.51985L12.162 8.95122L12.4208 7.98529ZM10.811 7.55393C8.68032 6.98302 6.67894 8.16401 6.11611 10.2645L7.08203 10.5233C7.50326 8.95129 8.95995 8.09323 10.5521 8.51985L10.811 7.55393ZM6.11611 10.2645L0.508362 31.1929L1.47429 31.4517L7.08203 10.5233L6.11611 10.2645ZM0.508362 31.1929C-0.0477359 33.2683 1.11346 35.3236 3.21894 35.8878L3.47776 34.9218C1.9107 34.5019 1.0598 32.9986 1.47429 31.4517L0.508362 31.1929ZM3.21894 35.8878L4.82882 36.3191L5.08764 35.3532L3.47776 34.9218L3.21894 35.8878ZM4.82882 36.3191C6.99141 36.8986 8.97448 35.6581 9.52367 33.6085L8.55774 33.3497C8.14647 34.8846 6.69819 35.7847 5.08764 35.3532L4.82882 36.3191ZM9.52367 33.6085L14.1496 16.3442L13.1837 16.0854L8.55774 33.3497L9.52367 33.6085ZM13.1667 16.2148V32.6667H14.1667V16.2148H13.1667ZM13.1667 32.6667C13.1667 34.8153 14.8203 36.5 17 36.5V35.5C15.3777 35.5 14.1667 34.2681 14.1667 32.6667L13.1667 32.6667ZM17 36.5H18.6667V35.5H17V36.5ZM18.6667 36.5C19.8433 36.5 20.8561 36.0247 21.5463 35.2467L20.7983 34.583C20.3022 35.1421 19.564 35.5 18.6667 35.5V36.5ZM23.6667 35.5C22.7941 35.5 22.0499 35.1451 21.5447 34.5812L20.7999 35.2485C21.4967 36.0263 22.5127 36.5 23.6667 36.5V35.5ZM20.8333 32.6667V7.6636H19.8333V32.6667H20.8333ZM20.8333 32.6694C20.8333 32.6686 20.8333 32.6679 20.8333 32.6675C20.8333 32.667 20.8333 32.6668 20.8333 32.6667H19.8333C19.8333 32.6674 19.8333 32.6681 19.8333 32.6685C19.8333 32.669 19.8333 32.6692 19.8333 32.6694H20.8333ZM19.8333 32.6683C19.8328 32.9223 19.7004 33.2178 19.4582 33.4597C19.216 33.7016 18.9204 33.8334 18.6667 33.8334V34.8334C19.2453 34.8334 19.7823 34.5493 20.1648 34.1673C20.5474 33.7853 20.8321 33.2489 20.8333 32.6704L19.8333 32.6683ZM18.6667 33.8334H17V34.8334H18.6667V33.8334ZM17 33.8334C16.7459 33.8334 16.45 33.7013 16.2077 33.459C15.9654 33.2166 15.8333 32.9207 15.8333 32.6667H14.8333C14.8333 33.246 15.1179 33.7834 15.5006 34.1661C15.8833 34.5488 16.4207 34.8334 17 34.8334V33.8334ZM15.8333 32.6667V7.66669H14.8333V32.6667H15.8333ZM15.8333 7.66669C15.8333 7.41264 15.9654 7.11674 16.2077 6.87441C16.45 6.63209 16.7459 6.50003 17 6.50003V5.50003C16.4207 5.50003 15.8833 5.78463 15.5006 6.16731C15.1179 6.54998 14.8333 7.08741 14.8333 7.66669H15.8333ZM17 6.50003H18.6667V5.50003H17V6.50003ZM18.6667 6.50003C18.9204 6.50003 19.2159 6.63174 19.4581 6.87355C19.7003 7.11535 19.8327 7.41085 19.8333 7.66484L20.8333 7.66237C20.8319 7.08406 20.5471 6.54777 20.1646 6.16586C19.7821 5.78395 19.2453 5.50003 18.6667 5.50003V6.50003ZM21.5 32.6693C21.5009 33.248 21.7856 33.7847 22.1682 34.1669C22.5508 34.5491 23.0878 34.8333 23.6667 34.8333V33.8333C23.4128 33.8333 23.1172 33.7015 22.8749 33.4595C22.6327 33.2175 22.5004 32.9218 22.5 32.6678L21.5 32.6693ZM23.6667 34.8333H25.3333V33.8333H23.6667V34.8333ZM25.3333 34.8333C25.9126 34.8333 26.45 34.5487 26.8327 34.1661C27.2154 33.7834 27.5 33.2459 27.5 32.6667H26.5C26.5 32.9207 26.3679 33.2166 26.1256 33.4589C25.8833 33.7013 25.5874 33.8333 25.3333 33.8333V34.8333ZM27.5 32.6667V4.33333H26.5V32.6667H27.5ZM27.5 4.33333C27.5 3.75405 27.2154 3.21662 26.8327 2.83395C26.45 2.45127 25.9126 2.16667 25.3333 2.16667V3.16667C25.5874 3.16667 25.8833 3.29873 26.1256 3.54105C26.3679 3.78338 26.5 4.07928 26.5 4.33333H27.5ZM25.3333 2.16667H23.6667V3.16667H25.3333V2.16667ZM23.6667 2.16667C23.0874 2.16667 22.5499 2.45127 22.1673 2.83395C21.7846 3.21662 21.5 3.75405 21.5 4.33333H22.5C22.5 4.07928 22.6321 3.78338 22.8744 3.54105C23.1167 3.29873 23.4126 3.16667 23.6667 3.16667V2.16667ZM21.5 4.33333V7.6628H22.5V4.33333H21.5ZM22.5 7.66669C22.5 7.66583 22.5 7.665 22.5 7.66438C22.5 7.6637 22.5 7.66323 22.5 7.6628H21.5C21.5 7.66366 21.5 7.66449 21.5 7.66511C21.5 7.66579 21.5 7.66626 21.5 7.66669H22.5ZM22.5 32.6667L22.5 7.66669H21.5L21.5 32.6667H22.5ZM22.4987 32.6311L22.4987 32.631L21.5013 32.7023L21.5013 32.7023L22.4987 32.6311ZM22.5 32.6686C22.5 32.6686 22.5 32.6686 22.5 32.6686C22.5 32.6686 22.5 32.6686 22.5 32.6686C22.5 32.6686 22.5 32.6686 22.5 32.6686C22.5 32.6686 22.5 32.6686 22.5 32.6685C22.5 32.6685 22.5 32.6685 22.5 32.6685V32.6685C22.5 32.6685 22.5 32.6685 22.5 32.6685C22.5 32.6685 22.5 32.6685 22.5 32.6685C22.5 32.6685 22.5 32.6685 22.5 32.6685C22.5 32.6685 22.5 32.6685 22.5 32.6685C22.5 32.6685 22.5 32.6685 22.5 32.6685C22.5 32.6685 22.5 32.6685 22.5 32.6685C22.5 32.6685 22.5 32.6685 22.5 32.6685C22.5 32.6685 22.5 32.6685 22.5 32.6685C22.5 32.6685 22.5 32.6685 22.5 32.6685C22.5 32.6685 22.5 32.6685 22.5 32.6685C22.5 32.6685 22.5 32.6685 22.5 32.6685V32.6685C22.5 32.6685 22.5 32.6685 22.5 32.6685C22.5 32.6685 22.5 32.6685 22.5 32.6685C22.5 32.6685 22.5 32.6685 22.5 32.6685C22.5 32.6685 22.5 32.6685 22.5 32.6685C22.5 32.6685 22.5 32.6685 22.5 32.6685C22.5 32.6685 22.5 32.6685 22.5 32.6685C22.5 32.6685 22.5 32.6685 22.5 32.6685C22.5 32.6685 22.5 32.6685 22.5 32.6685C22.5 32.6685 22.5 32.6685 22.5 32.6685C22.5 32.6685 22.5 32.6685 22.5 32.6685C22.5 32.6685 22.5 32.6685 22.5 32.6685V32.6685C22.5 32.6685 22.5 32.6685 22.5 32.6685C22.5 32.6684 22.5 32.6684 22.5 32.6684C22.5 32.6684 22.5 32.6684 22.5 32.6684C22.5 32.6684 22.5 32.6684 22.5 32.6684C22.5 32.6684 22.5 32.6684 22.5 32.6684C22.5 32.6684 22.5 32.6684 22.5 32.6684C22.5 32.6684 22.5 32.6684 22.5 32.6684C22.5 32.6684 22.5 32.6684 22.5 32.6684C22.5 32.6684 22.5 32.6684 22.5 32.6684C22.5 32.6684 22.5 32.6684 22.5 32.6684C22.5 32.6684 22.5 32.6684 22.5 32.6684V32.6684C22.5 32.6684 22.5 32.6684 22.5 32.6684C22.5 32.6684 22.5 32.6684 22.5 32.6684C22.5 32.6684 22.5 32.6684 22.5 32.6684C22.5 32.6684 22.5 32.6684 22.5 32.6684C22.5 32.6684 22.5 32.6684 22.5 32.6684C22.5 32.6684 22.5 32.6684 22.5 32.6684C22.5 32.6684 22.5 32.6684 22.5 32.6684C22.5 32.6684 22.5 32.6684 22.5 32.6684C22.5 32.6684 22.5 32.6684 22.5 32.6684C22.5 32.6684 22.5 32.6684 22.5 32.6684C22.5 32.6684 22.5 32.6684 22.5 32.6684V32.6684C22.5 32.6684 22.5 32.6684 22.5 32.6684C22.5 32.6684 22.5 32.6684 22.5 32.6684C22.5 32.6684 22.5 32.6684 22.5 32.6684C22.5 32.6684 22.5 32.6684 22.5 32.6684C22.5 32.6684 22.5 32.6684 22.5 32.6683C22.5 32.6683 22.5 32.6683 22.5 32.6683C22.5 32.6683 22.5 32.6683 22.5 32.6683C22.5 32.6683 22.5 32.6683 22.5 32.6683C22.5 32.6683 22.5 32.6683 22.5 32.6683C22.5 32.6683 22.5 32.6683 22.5 32.6683C22.5 32.6683 22.5 32.6683 22.5 32.6683V32.6683C22.5 32.6683 22.5 32.6683 22.5 32.6683C22.5 32.6683 22.5 32.6683 22.5 32.6683C22.5 32.6683 22.5 32.6683 22.5 32.6683C22.5 32.6683 22.5 32.6683 22.5 32.6683C22.5 32.6683 22.5 32.6683 22.5 32.6683C22.5 32.6683 22.5 32.6683 22.5 32.6683C22.5 32.6683 22.5 32.6683 22.5 32.6683C22.5 32.6683 22.5 32.6683 22.5 32.6683C22.5 32.6683 22.5 32.6683 22.5 32.6683C22.5 32.6683 22.5 32.6683 22.5 32.6683C22.5 32.6683 22.5 32.6683 22.5 32.6683V32.6683C22.5 32.6683 22.5 32.6683 22.5 32.6683C22.5 32.6683 22.5 32.6683 22.5 32.6683C22.5 32.6683 22.5 32.6683 22.5 32.6683C22.5 32.6683 22.5 32.6683 22.5 32.6683C22.5 32.6683 22.5 32.6683 22.5 32.6683C22.5 32.6683 22.5 32.6683 22.5 32.6683C22.5 32.6683 22.5 32.6683 22.5 32.6683C22.5 32.6683 22.5 32.6683 22.5 32.6682C22.5 32.6682 22.5 32.6682 22.5 32.6682C22.5 32.6682 22.5 32.6682 22.5 32.6682C22.5 32.6682 22.5 32.6682 22.5 32.6682V32.6682C22.5 32.6682 22.5 32.6682 22.5 32.6682C22.5 32.6682 22.5 32.6682 22.5 32.6682C22.5 32.6682 22.5 32.6682 22.5 32.6682C22.5 32.6682 22.5 32.6682 22.5 32.6682C22.5 32.6682 22.5 32.6682 22.5 32.6682C22.5 32.6682 22.5 32.6682 22.5 32.6682C22.5 32.6682 22.5 32.6682 22.5 32.6682C22.5 32.6682 22.5 32.6682 22.5 32.6682C22.5 32.6682 22.5 32.6682 22.5 32.6682C22.5 32.6682 22.5 32.6682 22.5 32.6682C22.5 32.6682 22.5 32.6682 22.5 32.6682V32.6682C22.5 32.6682 22.5 32.6682 22.5 32.6682C22.5 32.6682 22.5 32.6682 22.5 32.6682C22.5 32.6682 22.5 32.6682 22.5 32.6682C22.5 32.6682 22.5 32.6682 22.5 32.6682C22.5 32.6682 22.5 32.6682 22.5 32.6682C22.5 32.6682 22.5 32.6682 22.5 32.6682C22.5 32.6682 22.5 32.6682 22.5 32.6682C22.5 32.6682 22.5 32.6682 22.5 32.6682C22.5 32.6682 22.5 32.6682 22.5 32.6682C22.5 32.6682 22.5 32.6682 22.5 32.6682C22.5 32.6682 22.5 32.6682 22.5 32.6681V32.6681C22.5 32.6681 22.5 32.6681 22.5 32.6681C22.5 32.6681 22.5 32.6681 22.5 32.6681C22.5 32.6681 22.5 32.6681 22.5 32.6681C22.5 32.6681 22.5 32.6681 22.5 32.6681C22.5 32.6681 22.5 32.6681 22.5 32.6681C22.5 32.6681 22.5 32.6681 22.5 32.6681C22.5 32.6681 22.5 32.6681 22.5 32.6681C22.5 32.6681 22.5 32.6681 22.5 32.6681C22.5 32.6681 22.5 32.6681 22.5 32.6681C22.5 32.6681 22.5 32.6681 22.5 32.6681C22.5 32.6681 22.5 32.6681 22.5 32.6681V32.6681C22.5 32.6681 22.5 32.6681 22.5 32.6681C22.5 32.6681 22.5 32.6681 22.5 32.6681C22.5 32.6681 22.5 32.6681 22.5 32.6681C22.5 32.6681 22.5 32.6681 22.5 32.6681C22.5 32.6681 22.5 32.6681 22.5 32.6681C22.5 32.6681 22.5 32.6681 22.5 32.6681C22.5 32.6681 22.5 32.6681 22.5 32.6681C22.5 32.6681 22.5 32.6681 22.5 32.6681C22.5 32.6681 22.5 32.6681 22.5 32.6681C22.5 32.6681 22.5 32.6681 22.5 32.6681V32.6681C22.5 32.6681 22.5 32.6681 22.5 32.6681C22.5 32.6681 22.5 32.6681 22.5 32.6681C22.5 32.6681 22.5 32.6681 22.5 32.6681C22.5 32.6681 22.5 32.668 22.5 32.668C22.5 32.668 22.5 32.668 22.5 32.668C22.5 32.668 22.5 32.668 22.5 32.668C22.5 32.668 22.5 32.668 22.5 32.668C22.5 32.668 22.5 32.668 22.5 32.668C22.5 32.668 22.5 32.668 22.5 32.668C22.5 32.668 22.5 32.668 22.5 32.668C22.5 32.668 22.5 32.668 22.5 32.668V32.668C22.5 32.668 22.5 32.668 22.5 32.668C22.5 32.668 22.5 32.668 22.5 32.668C22.5 32.668 22.5 32.668 22.5 32.668C22.5 32.668 22.5 32.668 22.5 32.668C22.5 32.668 22.5 32.668 22.5 32.668C22.5 32.668 22.5 32.668 22.5 32.668C22.5 32.668 22.5 32.668 22.5 32.668C22.5 32.668 22.5 32.668 22.5 32.668C22.5 32.668 22.5 32.668 22.5 32.668C22.5 32.668 22.5 32.668 22.5 32.668C22.5 32.668 22.5 32.668 22.5 32.668V32.668C22.5 32.668 22.5 32.668 22.5 32.668C22.5 32.668 22.5 32.668 22.5 32.668C22.5 32.668 22.5 32.668 22.5 32.668C22.5 32.668 22.5 32.668 22.5 32.668C22.5 32.668 22.5 32.668 22.5 32.668C22.5 32.668 22.5 32.668 22.5 32.668C22.5 32.668 22.5 32.668 22.5 32.6679C22.5 32.6679 22.5 32.6679 22.5 32.6679C22.5 32.6679 22.5 32.6679 22.5 32.6679C22.5 32.6679 22.5 32.6679 22.5 32.6679C22.5 32.6679 22.5 32.6679 22.5 32.6679V32.6679C22.5 32.6679 22.5 32.6679 22.5 32.6679C22.5 32.6679 22.5 32.6679 22.5 32.6679C22.5 32.6679 22.5 32.6679 22.5 32.6679C22.5 32.6679 22.5 32.6679 22.5 32.6679C22.5 32.6679 22.5 32.6679 22.5 32.6679C22.5 32.6679 22.5 32.6679 22.5 32.6679C22.5 32.6679 22.5 32.6679 22.5 32.6679C22.5 32.6679 22.5 32.6679 22.5 32.6679C22.5 32.6679 22.5 32.6679 22.5 32.6679C22.5 32.6679 22.5 32.6679 22.5 32.6679C22.5 32.6679 22.5 32.6679 22.5 32.6679V32.6679C22.5 32.6679 22.5 32.6679 22.5 32.6679C22.5 32.6679 22.5 32.6679 22.5 32.6679C22.5 32.6679 22.5 32.6679 22.5 32.6679C22.5 32.6679 22.5 32.6679 22.5 32.6679C22.5 32.6679 22.5 32.6679 22.5 32.6679C22.5 32.6679 22.5 32.6679 22.5 32.6679C22.5 32.6679 22.5 32.6679 22.5 32.6679C22.5 32.6679 22.5 32.6679 22.5 32.6679C22.5 32.6679 22.5 32.6679 22.5 32.6679C22.5 32.6679 22.5 32.6679 22.5 32.6679C22.5 32.6679 22.5 32.6678 22.5 32.6678V32.6678C22.5 32.6678 22.5 32.6678 22.5 32.6678C22.5 32.6678 22.5 32.6678 22.5 32.6678C22.5 32.6678 22.5 32.6678 22.5 32.6678C22.5 32.6678 22.5 32.6678 22.5 32.6678C22.5 32.6678 22.5 32.6678 22.5 32.6678C22.5 32.6678 22.5 32.6678 22.5 32.6678C22.5 32.6678 22.5 32.6678 22.5 32.6678C22.5 32.6678 22.5 32.6678 22.5 32.6678C22.5 32.6678 22.5 32.6678 22.5 32.6678C22.5 32.6678 22.5 32.6678 22.5 32.6678C22.5 32.6678 22.5 32.6678 22.5 32.6678V32.6678C22.5 32.6678 22.5 32.6678 22.5 32.6678C22.5 32.6678 22.5 32.6678 22.5 32.6678C22.5 32.6678 22.5 32.6678 22.5 32.6678C22.5 32.6678 22.5 32.6678 22.5 32.6678C22.5 32.6678 22.5 32.6678 22.5 32.6678C22.5 32.6678 22.5 32.6678 22.5 32.6678C22.5 32.6678 22.5 32.6678 22.5 32.6678C22.5 32.6678 22.5 32.6678 22.5 32.6678C22.5 32.6678 22.5 32.6678 22.5 32.6678C22.5 32.6678 22.5 32.6678 22.5 32.6678C22.5 32.6678 22.5 32.6678 22.5 32.6678V32.6678C22.5 32.6678 22.5 32.6678 22.5 32.6678C22.5 32.6678 22.5 32.6677 22.5 32.6677C22.5 32.6677 22.5 32.6677 22.5 32.6677C22.5 32.6677 22.5 32.6677 22.5 32.6677C22.5 32.6677 22.5 32.6677 22.5 32.6677C22.5 32.6677 22.5 32.6677 22.5 32.6677C22.5 32.6677 22.5 32.6677 22.5 32.6677C22.5 32.6677 22.5 32.6677 22.5 32.6677C22.5 32.6677 22.5 32.6677 22.5 32.6677C22.5 32.6677 22.5 32.6677 22.5 32.6677C22.5 32.6677 22.5 32.6677 22.5 32.6677V32.6677C22.5 32.6677 22.5 32.6677 22.5 32.6677C22.5 32.6677 22.5 32.6677 22.5 32.6677C22.5 32.6677 22.5 32.6677 22.5 32.6677C22.5 32.6677 22.5 32.6677 22.5 32.6677C22.5 32.6677 22.5 32.6677 22.5 32.6677C22.5 32.6677 22.5 32.6677 22.5 32.6677C22.5 32.6677 22.5 32.6677 22.5 32.6677C22.5 32.6677 22.5 32.6677 22.5 32.6677C22.5 32.6677 22.5 32.6677 22.5 32.6677C22.5 32.6677 22.5 32.6677 22.5 32.6677C22.5 32.6677 22.5 32.6677 22.5 32.6677V32.6677C22.5 32.6677 22.5 32.6677 22.5 32.6677C22.5 32.6677 22.5 32.6677 22.5 32.6677C22.5 32.6677 22.5 32.6677 22.5 32.6677C22.5 32.6677 22.5 32.6677 22.5 32.6677C22.5 32.6677 22.5 32.6677 22.5 32.6677C22.5 32.6676 22.5 32.6676 22.5 32.6676C22.5 32.6676 22.5 32.6676 22.5 32.6676C22.5 32.6676 22.5 32.6676 22.5 32.6676C22.5 32.6676 22.5 32.6676 22.5 32.6676C22.5 32.6676 22.5 32.6676 22.5 32.6676V32.6676C22.5 32.6676 22.5 32.6676 22.5 32.6676C22.5 32.6676 22.5 32.6676 22.5 32.6676C22.5 32.6676 22.5 32.6676 22.5 32.6676C22.5 32.6676 22.5 32.6676 22.5 32.6676C22.5 32.6676 22.5 32.6676 22.5 32.6676C22.5 32.6676 22.5 32.6676 22.5 32.6676C22.5 32.6676 22.5 32.6676 22.5 32.6676C22.5 32.6676 22.5 32.6676 22.5 32.6676C22.5 32.6676 22.5 32.6676 22.5 32.6676C22.5 32.6676 22.5 32.6676 22.5 32.6676C22.5 32.6676 22.5 32.6676 22.5 32.6676V32.6676C22.5 32.6676 22.5 32.6676 22.5 32.6676C22.5 32.6676 22.5 32.6676 22.5 32.6676C22.5 32.6676 22.5 32.6676 22.5 32.6676C22.5 32.6676 22.5 32.6676 22.5 32.6676C22.5 32.6676 22.5 32.6676 22.5 32.6676C22.5 32.6676 22.5 32.6676 22.5 32.6676C22.5 32.6676 22.5 32.6676 22.5 32.6676C22.5 32.6676 22.5 32.6676 22.5 32.6676C22.5 32.6676 22.5 32.6676 22.5 32.6676C22.5 32.6676 22.5 32.6675 22.5 32.6675C22.5 32.6675 22.5 32.6675 22.5 32.6675V32.6675C22.5 32.6675 22.5 32.6675 22.5 32.6675C22.5 32.6675 22.5 32.6675 22.5 32.6675C22.5 32.6675 22.5 32.6675 22.5 32.6675C22.5 32.6675 22.5 32.6675 22.5 32.6675C22.5 32.6675 22.5 32.6675 22.5 32.6675C22.5 32.6675 22.5 32.6675 22.5 32.6675C22.5 32.6675 22.5 32.6675 22.5 32.6675C22.5 32.6675 22.5 32.6675 22.5 32.6675C22.5 32.6675 22.5 32.6675 22.5 32.6675C22.5 32.6675 22.5 32.6675 22.5 32.6675C22.5 32.6675 22.5 32.6675 22.5 32.6675V32.6675C22.5 32.6675 22.5 32.6675 22.5 32.6675C22.5 32.6675 22.5 32.6675 22.5 32.6675C22.5 32.6675 22.5 32.6675 22.5 32.6675C22.5 32.6675 22.5 32.6675 22.5 32.6675C22.5 32.6675 22.5 32.6675 22.5 32.6675C22.5 32.6675 22.5 32.6675 22.5 32.6675C22.5 32.6675 22.5 32.6675 22.5 32.6675C22.5 32.6675 22.5 32.6675 22.5 32.6675C22.5 32.6675 22.5 32.6675 22.5 32.6675C22.5 32.6675 22.5 32.6675 22.5 32.6675C22.5 32.6675 22.5 32.6675 22.5 32.6675V32.6675C22.5 32.6675 22.5 32.6674 22.5 32.6674C22.5 32.6674 22.5 32.6674 22.5 32.6674C22.5 32.6674 22.5 32.6674 22.5 32.6674C22.5 32.6674 22.5 32.6674 22.5 32.6674C22.5 32.6674 22.5 32.6674 22.5 32.6674C22.5 32.6674 22.5 32.6674 22.5 32.6674C22.5 32.6674 22.5 32.6674 22.5 32.6674C22.5 32.6674 22.5 32.6674 22.5 32.6674C22.5 32.6674 22.5 32.6674 22.5 32.6674C22.5 32.6674 22.5 32.6674 22.5 32.6674C22.5 32.6674 22.5 32.6674 22.5 32.6674V32.6674C22.5 32.6674 22.5 32.6674 22.5 32.6674C22.5 32.6674 22.5 32.6674 22.5 32.6674C22.5 32.6674 22.5 32.6674 22.5 32.6674C22.5 32.6674 22.5 32.6674 22.5 32.6674C22.5 32.6674 22.5 32.6674 22.5 32.6674C22.5 32.6674 22.5 32.6674 22.5 32.6674C22.5 32.6674 22.5 32.6674 22.5 32.6674C22.5 32.6674 22.5 32.6674 22.5 32.6674C22.5 32.6674 22.5 32.6674 22.5 32.6674C22.5 32.6674 22.5 32.6674 22.5 32.6674C22.5 32.6674 22.5 32.6674 22.5 32.6674V32.6674C22.5 32.6674 22.5 32.6674 22.5 32.6674C22.5 32.6674 22.5 32.6674 22.5 32.6674C22.5 32.6674 22.5 32.6674 22.5 32.6674C22.5 32.6674 22.5 32.6674 22.5 32.6674C22.5 32.6673 22.5 32.6673 22.5 32.6673C22.5 32.6673 22.5 32.6673 22.5 32.6673C22.5 32.6673 22.5 32.6673 22.5 32.6673C22.5 32.6673 22.5 32.6673 22.5 32.6673C22.5 32.6673 22.5 32.6673 22.5 32.6673C22.5 32.6673 22.5 32.6673 22.5 32.6673C22.5 32.6673 22.5 32.6673 22.5 32.6673V32.6673C22.5 32.6673 22.5 32.6673 22.5 32.6673C22.5 32.6673 22.5 32.6673 22.5 32.6673C22.5 32.6673 22.5 32.6673 22.5 32.6673C22.5 32.6673 22.5 32.6673 22.5 32.6673C22.5 32.6673 22.5 32.6673 22.5 32.6673C22.5 32.6673 22.5 32.6673 22.5 32.6673C22.5 32.6673 22.5 32.6673 22.5 32.6673C22.5 32.6673 22.5 32.6673 22.5 32.6673C22.5 32.6673 22.5 32.6673 22.5 32.6673C22.5 32.6673 22.5 32.6673 22.5 32.6673C22.5 32.6673 22.5 32.6673 22.5 32.6673V32.6673C22.5 32.6673 22.5 32.6673 22.5 32.6673C22.5 32.6673 22.5 32.6673 22.5 32.6673C22.5 32.6673 22.5 32.6673 22.5 32.6673C22.5 32.6673 22.5 32.6673 22.5 32.6673C22.5 32.6673 22.5 32.6673 22.5 32.6673C22.5 32.6673 22.5 32.6673 22.5 32.6673C22.5 32.6673 22.5 32.6673 22.5 32.6673C22.5 32.6673 22.5 32.6672 22.5 32.6672C22.5 32.6672 22.5 32.6672 22.5 32.6672C22.5 32.6672 22.5 32.6672 22.5 32.6672C22.5 32.6672 22.5 32.6672 22.5 32.6672V32.6672C22.5 32.6672 22.5 32.6672 22.5 32.6672C22.5 32.6672 22.5 32.6672 22.5 32.6672C22.5 32.6672 22.5 32.6672 22.5 32.6672C22.5 32.6672 22.5 32.6672 22.5 32.6672C22.5 32.6672 22.5 32.6672 22.5 32.6672C22.5 32.6672 22.5 32.6672 22.5 32.6672C22.5 32.6672 22.5 32.6672 22.5 32.6672C22.5 32.6672 22.5 32.6672 22.5 32.6672C22.5 32.6672 22.5 32.6672 22.5 32.6672C22.5 32.6672 22.5 32.6672 22.5 32.6672C22.5 32.6672 22.5 32.6672 22.5 32.6672V32.6672C22.5 32.6672 22.5 32.6672 22.5 32.6672C22.5 32.6672 22.5 32.6672 22.5 32.6672C22.5 32.6672 22.5 32.6672 22.5 32.6672C22.5 32.6672 22.5 32.6672 22.5 32.6672C22.5 32.6672 22.5 32.6672 22.5 32.6672C22.5 32.6672 22.5 32.6672 22.5 32.6672C22.5 32.6672 22.5 32.6672 22.5 32.6672C22.5 32.6672 22.5 32.6672 22.5 32.6672C22.5 32.6672 22.5 32.6672 22.5 32.6672C22.5 32.6672 22.5 32.6672 22.5 32.6672V32.6672C22.5 32.6671 22.5 32.6671 22.5 32.6671C22.5 32.6671 22.5 32.6671 22.5 32.6671C22.5 32.6671 22.5 32.6671 22.5 32.6671C22.5 32.6671 22.5 32.6671 22.5 32.6671C22.5 32.6671 22.5 32.6671 22.5 32.6671C22.5 32.6671 22.5 32.6671 22.5 32.6671C22.5 32.6671 22.5 32.6671 22.5 32.6671C22.5 32.6671 22.5 32.6671 22.5 32.6671C22.5 32.6671 22.5 32.6671 22.5 32.6671C22.5 32.6671 22.5 32.6671 22.5 32.6671C22.5 32.6671 22.5 32.6671 22.5 32.6671V32.6671C22.5 32.6671 22.5 32.6671 22.5 32.6671C22.5 32.6671 22.5 32.6671 22.5 32.6671C22.5 32.6671 22.5 32.6671 22.5 32.6671C22.5 32.6671 22.5 32.6671 22.5 32.6671C22.5 32.6671 22.5 32.6671 22.5 32.6671C22.5 32.6671 22.5 32.6671 22.5 32.6671C22.5 32.6671 22.5 32.6671 22.5 32.6671C22.5 32.6671 22.5 32.6671 22.5 32.6671C22.5 32.6671 22.5 32.6671 22.5 32.6671C22.5 32.6671 22.5 32.6671 22.5 32.6671C22.5 32.6671 22.5 32.6671 22.5 32.6671V32.6671C22.5 32.6671 22.5 32.6671 22.5 32.6671C22.5 32.6671 22.5 32.6671 22.5 32.6671C22.5 32.6671 22.5 32.6671 22.5 32.6671C22.5 32.667 22.5 32.667 22.5 32.667C22.5 32.667 22.5 32.667 22.5 32.667C22.5 32.667 22.5 32.667 22.5 32.667C22.5 32.667 22.5 32.667 22.5 32.667C22.5 32.667 22.5 32.667 22.5 32.667C22.5 32.667 22.5 32.667 22.5 32.667C22.5 32.667 22.5 32.667 22.5 32.667C22.5 32.667 22.5 32.667 22.5 32.667V32.667C22.5 32.667 22.5 32.667 22.5 32.667C22.5 32.667 22.5 32.667 22.5 32.667C22.5 32.667 22.5 32.667 22.5 32.667C22.5 32.667 22.5 32.667 22.5 32.667C22.5 32.667 22.5 32.667 22.5 32.667C22.5 32.667 22.5 32.667 22.5 32.667C22.5 32.667 22.5 32.667 22.5 32.667C22.5 32.667 22.5 32.667 22.5 32.667C22.5 32.667 22.5 32.667 22.5 32.667C22.5 32.667 22.5 32.667 22.5 32.667C22.5 32.667 22.5 32.667 22.5 32.667V32.667C22.5 32.667 22.5 32.667 22.5 32.667C22.5 32.667 22.5 32.667 22.5 32.667C22.5 32.667 22.5 32.667 22.5 32.667C22.5 32.667 22.5 32.667 22.5 32.667C22.5 32.667 22.5 32.667 22.5 32.667C22.5 32.667 22.5 32.667 22.5 32.667C22.5 32.667 22.5 32.667 22.5 32.6669C22.5 32.6669 22.5 32.6669 22.5 32.6669C22.5 32.6669 22.5 32.6669 22.5 32.6669C22.5 32.6669 22.5 32.6669 22.5 32.6669C22.5 32.6669 22.5 32.6669 22.5 32.6669V32.6669C22.5 32.6669 22.5 32.6669 22.5 32.6669C22.5 32.6669 22.5 32.6669 22.5 32.6669C22.5 32.6669 22.5 32.6669 22.5 32.6669C22.5 32.6669 22.5 32.6669 22.5 32.6669C22.5 32.6669 22.5 32.6669 22.5 32.6669C22.5 32.6669 22.5 32.6669 22.5 32.6669C22.5 32.6669 22.5 32.6669 22.5 32.6669C22.5 32.6669 22.5 32.6669 22.5 32.6669C22.5 32.6669 22.5 32.6669 22.5 32.6669C22.5 32.6669 22.5 32.6669 22.5 32.6669C22.5 32.6669 22.5 32.6669 22.5 32.6669V32.6669C22.5 32.6669 22.5 32.6669 22.5 32.6669C22.5 32.6669 22.5 32.6669 22.5 32.6669C22.5 32.6669 22.5 32.6669 22.5 32.6669C22.5 32.6669 22.5 32.6669 22.5 32.6669C22.5 32.6669 22.5 32.6669 22.5 32.6669C22.5 32.6669 22.5 32.6669 22.5 32.6669C22.5 32.6669 22.5 32.6669 22.5 32.6669C22.5 32.6669 22.5 32.6669 22.5 32.6669C22.5 32.6669 22.5 32.6669 22.5 32.6669C22.5 32.6669 22.5 32.6669 22.5 32.6668C22.5 32.6668 22.5 32.6668 22.5 32.6668V32.6668C22.5 32.6668 22.5 32.6668 22.5 32.6668C22.5 32.6668 22.5 32.6668 22.5 32.6668C22.5 32.6668 22.5 32.6668 22.5 32.6668C22.5 32.6668 22.5 32.6668 22.5 32.6668C22.5 32.6668 22.5 32.6668 22.5 32.6668C22.5 32.6668 22.5 32.6668 22.5 32.6668C22.5 32.6668 22.5 32.6668 22.5 32.6668C22.5 32.6668 22.5 32.6668 22.5 32.6668C22.5 32.6668 22.5 32.6668 22.5 32.6668C22.5 32.6668 22.5 32.6668 22.5 32.6668C22.5 32.6668 22.5 32.6668 22.5 32.6668V32.6668C22.5 32.6668 22.5 32.6668 22.5 32.6668C22.5 32.6668 22.5 32.6668 22.5 32.6668C22.5 32.6668 22.5 32.6668 22.5 32.6668C22.5 32.6668 22.5 32.6668 22.5 32.6668C22.5 32.6668 22.5 32.6668 22.5 32.6668C22.5 32.6668 22.5 32.6668 22.5 32.6668C22.5 32.6668 22.5 32.6668 22.5 32.6668C22.5 32.6668 22.5 32.6668 22.5 32.6668C22.5 32.6668 22.5 32.6668 22.5 32.6668C22.5 32.6668 22.5 32.6668 22.5 32.6668C22.5 32.6668 22.5 32.6668 22.5 32.6668V32.6668C22.5 32.6668 22.5 32.6668 22.5 32.6668C22.5 32.6667 22.5 32.6667 22.5 32.6667C22.5 32.6667 22.5 32.6667 22.5 32.6667C22.5 32.6667 22.5 32.6667 22.5 32.6667C22.5 32.6667 22.5 32.6667 22.5 32.6667C22.5 32.6667 22.5 32.6667 22.5 32.6667C22.5 32.6667 22.5 32.6667 22.5 32.6667C22.5 32.6667 22.5 32.6667 22.5 32.6667C22.5 32.6667 22.5 32.6667 22.5 32.6667C22.5 32.6667 22.5 32.6667 22.5 32.6667C22.5 32.6667 22.5 32.6667 22.5 32.6667V32.6667C22.5 32.6667 22.5 32.6667 22.5 32.6667C22.5 32.6667 22.5 32.6667 22.5 32.6667C22.5 32.6667 22.5 32.6667 22.5 32.6667C22.5 32.6667 22.5 32.6667 22.5 32.6667C22.5 32.6667 22.5 32.6667 22.5 32.6667H21.5C21.5 32.6667 21.5 32.6667 21.5 32.6667C21.5 32.6667 21.5 32.6667 21.5 32.6667C21.5 32.6667 21.5 32.6667 21.5 32.6667C21.5 32.6667 21.5 32.6667 21.5 32.6667C21.5 32.6667 21.5 32.6667 21.5 32.6667V32.6667C21.5 32.6667 21.5 32.6667 21.5 32.6667C21.5 32.6667 21.5 32.6667 21.5 32.6667C21.5 32.6667 21.5 32.6667 21.5 32.6667C21.5 32.6667 21.5 32.6667 21.5 32.6667C21.5 32.6667 21.5 32.6667 21.5 32.6667C21.5 32.6667 21.5 32.6667 21.5 32.6667C21.5 32.6667 21.5 32.6667 21.5 32.6667C21.5 32.6667 21.5 32.6667 21.5 32.6667C21.5 32.6667 21.5 32.6667 21.5 32.6667C21.5 32.6667 21.5 32.6667 21.5 32.6668C21.5 32.6668 21.5 32.6668 21.5 32.6668V32.6668C21.5 32.6668 21.5 32.6668 21.5 32.6668C21.5 32.6668 21.5 32.6668 21.5 32.6668C21.5 32.6668 21.5 32.6668 21.5 32.6668C21.5 32.6668 21.5 32.6668 21.5 32.6668C21.5 32.6668 21.5 32.6668 21.5 32.6668C21.5 32.6668 21.5 32.6668 21.5 32.6668C21.5 32.6668 21.5 32.6668 21.5 32.6668C21.5 32.6668 21.5 32.6668 21.5 32.6668C21.5 32.6668 21.5 32.6668 21.5 32.6668C21.5 32.6668 21.5 32.6668 21.5 32.6668C21.5 32.6668 21.5 32.6668 21.5 32.6668V32.6668C21.5 32.6668 21.5 32.6668 21.5 32.6668C21.5 32.6668 21.5 32.6668 21.5 32.6668C21.5 32.6668 21.5 32.6668 21.5 32.6668C21.5 32.6668 21.5 32.6668 21.5 32.6668C21.5 32.6668 21.5 32.6668 21.5 32.6668C21.5 32.6668 21.5 32.6668 21.5 32.6668C21.5 32.6668 21.5 32.6668 21.5 32.6668C21.5 32.6668 21.5 32.6668 21.5 32.6668C21.5 32.6668 21.5 32.6668 21.5 32.6668C21.5 32.6668 21.5 32.6668 21.5 32.6668C21.5 32.6668 21.5 32.6668 21.5 32.6668V32.6668C21.5 32.6668 21.5 32.6668 21.5 32.6668C21.5 32.6669 21.5 32.6669 21.5 32.6669C21.5 32.6669 21.5 32.6669 21.5 32.6669C21.5 32.6669 21.5 32.6669 21.5 32.6669C21.5 32.6669 21.5 32.6669 21.5 32.6669C21.5 32.6669 21.5 32.6669 21.5 32.6669C21.5 32.6669 21.5 32.6669 21.5 32.6669C21.5 32.6669 21.5 32.6669 21.5 32.6669C21.5 32.6669 21.5 32.6669 21.5 32.6669C21.5 32.6669 21.5 32.6669 21.5 32.6669C21.5 32.6669 21.5 32.6669 21.5 32.6669V32.6669C21.5 32.6669 21.5 32.6669 21.5 32.6669C21.5 32.6669 21.5 32.6669 21.5 32.6669C21.5 32.6669 21.5 32.6669 21.5 32.6669C21.5 32.6669 21.5 32.6669 21.5 32.6669C21.5 32.6669 21.5 32.6669 21.5 32.6669C21.5 32.6669 21.5 32.6669 21.5 32.6669C21.5 32.6669 21.5 32.6669 21.5 32.6669C21.5 32.6669 21.5 32.6669 21.5 32.6669C21.5 32.6669 21.5 32.6669 21.5 32.6669C21.5 32.6669 21.5 32.6669 21.5 32.6669C21.5 32.6669 21.5 32.6669 21.5 32.6669V32.6669C21.5 32.6669 21.5 32.6669 21.5 32.6669C21.5 32.6669 21.5 32.6669 21.5 32.6669C21.5 32.6669 21.5 32.6669 21.5 32.6669C21.5 32.6669 21.5 32.6669 21.5 32.6669C21.5 32.667 21.5 32.667 21.5 32.667C21.5 32.667 21.5 32.667 21.5 32.667C21.5 32.667 21.5 32.667 21.5 32.667C21.5 32.667 21.5 32.667 21.5 32.667C21.5 32.667 21.5 32.667 21.5 32.667C21.5 32.667 21.5 32.667 21.5 32.667C21.5 32.667 21.5 32.667 21.5 32.667V32.667C21.5 32.667 21.5 32.667 21.5 32.667C21.5 32.667 21.5 32.667 21.5 32.667C21.5 32.667 21.5 32.667 21.5 32.667C21.5 32.667 21.5 32.667 21.5 32.667C21.5 32.667 21.5 32.667 21.5 32.667C21.5 32.667 21.5 32.667 21.5 32.667C21.5 32.667 21.5 32.667 21.5 32.667C21.5 32.667 21.5 32.667 21.5 32.667C21.5 32.667 21.5 32.667 21.5 32.667C21.5 32.667 21.5 32.667 21.5 32.667C21.5 32.667 21.5 32.667 21.5 32.667V32.667C21.5 32.667 21.5 32.667 21.5 32.667C21.5 32.667 21.5 32.667 21.5 32.667C21.5 32.667 21.5 32.667 21.5 32.667C21.5 32.667 21.5 32.667 21.5 32.667C21.5 32.667 21.5 32.667 21.5 32.667C21.5 32.667 21.5 32.667 21.5 32.667C21.5 32.667 21.5 32.667 21.5 32.667C21.5 32.667 21.5 32.667 21.5 32.6671C21.5 32.6671 21.5 32.6671 21.5 32.6671C21.5 32.6671 21.5 32.6671 21.5 32.6671C21.5 32.6671 21.5 32.6671 21.5 32.6671V32.6671C21.5 32.6671 21.5 32.6671 21.5 32.6671C21.5 32.6671 21.5 32.6671 21.5 32.6671C21.5 32.6671 21.5 32.6671 21.5 32.6671C21.5 32.6671 21.5 32.6671 21.5 32.6671C21.5 32.6671 21.5 32.6671 21.5 32.6671C21.5 32.6671 21.5 32.6671 21.5 32.6671C21.5 32.6671 21.5 32.6671 21.5 32.6671C21.5 32.6671 21.5 32.6671 21.5 32.6671C21.5 32.6671 21.5 32.6671 21.5 32.6671C21.5 32.6671 21.5 32.6671 21.5 32.6671C21.5 32.6671 21.5 32.6671 21.5 32.6671V32.6671C21.5 32.6671 21.5 32.6671 21.5 32.6671C21.5 32.6671 21.5 32.6671 21.5 32.6671C21.5 32.6671 21.5 32.6671 21.5 32.6671C21.5 32.6671 21.5 32.6671 21.5 32.6671C21.5 32.6671 21.5 32.6671 21.5 32.6671C21.5 32.6671 21.5 32.6671 21.5 32.6671C21.5 32.6671 21.5 32.6671 21.5 32.6671C21.5 32.6671 21.5 32.6671 21.5 32.6671C21.5 32.6671 21.5 32.6671 21.5 32.6671C21.5 32.6671 21.5 32.6671 21.5 32.6671C21.5 32.6671 21.5 32.6671 21.5 32.6672V32.6672C21.5 32.6672 21.5 32.6672 21.5 32.6672C21.5 32.6672 21.5 32.6672 21.5 32.6672C21.5 32.6672 21.5 32.6672 21.5 32.6672C21.5 32.6672 21.5 32.6672 21.5 32.6672C21.5 32.6672 21.5 32.6672 21.5 32.6672C21.5 32.6672 21.5 32.6672 21.5 32.6672C21.5 32.6672 21.5 32.6672 21.5 32.6672C21.5 32.6672 21.5 32.6672 21.5 32.6672C21.5 32.6672 21.5 32.6672 21.5 32.6672C21.5 32.6672 21.5 32.6672 21.5 32.6672V32.6672C21.5 32.6672 21.5 32.6672 21.5 32.6672C21.5 32.6672 21.5 32.6672 21.5 32.6672C21.5 32.6672 21.5 32.6672 21.5 32.6672C21.5 32.6672 21.5 32.6672 21.5 32.6672C21.5 32.6672 21.5 32.6672 21.5 32.6672C21.5 32.6672 21.5 32.6672 21.5 32.6672C21.5 32.6672 21.5 32.6672 21.5 32.6672C21.5 32.6672 21.5 32.6672 21.5 32.6672C21.5 32.6672 21.5 32.6672 21.5 32.6672C21.5 32.6672 21.5 32.6672 21.5 32.6672C21.5 32.6672 21.5 32.6672 21.5 32.6672V32.6672C21.5 32.6672 21.5 32.6672 21.5 32.6672C21.5 32.6672 21.5 32.6672 21.5 32.6672C21.5 32.6672 21.5 32.6672 21.5 32.6672C21.5 32.6672 21.5 32.6673 21.5 32.6673C21.5 32.6673 21.5 32.6673 21.5 32.6673C21.5 32.6673 21.5 32.6673 21.5 32.6673C21.5 32.6673 21.5 32.6673 21.5 32.6673C21.5 32.6673 21.5 32.6673 21.5 32.6673C21.5 32.6673 21.5 32.6673 21.5 32.6673C21.5 32.6673 21.5 32.6673 21.5 32.6673C21.5 32.6673 21.5 32.6673 21.5 32.6673V32.6673C21.5 32.6673 21.5 32.6673 21.5 32.6673C21.5 32.6673 21.5 32.6673 21.5 32.6673C21.5 32.6673 21.5 32.6673 21.5 32.6673C21.5 32.6673 21.5 32.6673 21.5 32.6673C21.5 32.6673 21.5 32.6673 21.5 32.6673C21.5 32.6673 21.5 32.6673 21.5 32.6673C21.5 32.6673 21.5 32.6673 21.5 32.6673C21.5 32.6673 21.5 32.6673 21.5 32.6673C21.5 32.6673 21.5 32.6673 21.5 32.6673C21.5 32.6673 21.5 32.6673 21.5 32.6673C21.5 32.6673 21.5 32.6673 21.5 32.6673V32.6673C21.5 32.6673 21.5 32.6673 21.5 32.6673C21.5 32.6673 21.5 32.6673 21.5 32.6673C21.5 32.6673 21.5 32.6673 21.5 32.6673C21.5 32.6673 21.5 32.6673 21.5 32.6673C21.5 32.6673 21.5 32.6673 21.5 32.6673C21.5 32.6673 21.5 32.6673 21.5 32.6673C21.5 32.6673 21.5 32.6673 21.5 32.6674C21.5 32.6674 21.5 32.6674 21.5 32.6674C21.5 32.6674 21.5 32.6674 21.5 32.6674C21.5 32.6674 21.5 32.6674 21.5 32.6674C21.5 32.6674 21.5 32.6674 21.5 32.6674V32.6674C21.5 32.6674 21.5 32.6674 21.5 32.6674C21.5 32.6674 21.5 32.6674 21.5 32.6674C21.5 32.6674 21.5 32.6674 21.5 32.6674C21.5 32.6674 21.5 32.6674 21.5 32.6674C21.5 32.6674 21.5 32.6674 21.5 32.6674C21.5 32.6674 21.5 32.6674 21.5 32.6674C21.5 32.6674 21.5 32.6674 21.5 32.6674C21.5 32.6674 21.5 32.6674 21.5 32.6674C21.5 32.6674 21.5 32.6674 21.5 32.6674C21.5 32.6674 21.5 32.6674 21.5 32.6674C21.5 32.6674 21.5 32.6674 21.5 32.6674V32.6674C21.5 32.6674 21.5 32.6674 21.5 32.6674C21.5 32.6674 21.5 32.6674 21.5 32.6674C21.5 32.6674 21.5 32.6674 21.5 32.6674C21.5 32.6674 21.5 32.6674 21.5 32.6674C21.5 32.6674 21.5 32.6674 21.5 32.6674C21.5 32.6674 21.5 32.6674 21.5 32.6674C21.5 32.6674 21.5 32.6674 21.5 32.6674C21.5 32.6674 21.5 32.6674 21.5 32.6674C21.5 32.6674 21.5 32.6674 21.5 32.6674C21.5 32.6674 21.5 32.6674 21.5 32.6674C21.5 32.6674 21.5 32.6675 21.5 32.6675V32.6675C21.5 32.6675 21.5 32.6675 21.5 32.6675C21.5 32.6675 21.5 32.6675 21.5 32.6675C21.5 32.6675 21.5 32.6675 21.5 32.6675C21.5 32.6675 21.5 32.6675 21.5 32.6675C21.5 32.6675 21.5 32.6675 21.5 32.6675C21.5 32.6675 21.5 32.6675 21.5 32.6675C21.5 32.6675 21.5 32.6675 21.5 32.6675C21.5 32.6675 21.5 32.6675 21.5 32.6675C21.5 32.6675 21.5 32.6675 21.5 32.6675C21.5 32.6675 21.5 32.6675 21.5 32.6675C21.5 32.6675 21.5 32.6675 21.5 32.6675V32.6675C21.5 32.6675 21.5 32.6675 21.5 32.6675C21.5 32.6675 21.5 32.6675 21.5 32.6675C21.5 32.6675 21.5 32.6675 21.5 32.6675C21.5 32.6675 21.5 32.6675 21.5 32.6675C21.5 32.6675 21.5 32.6675 21.5 32.6675C21.5 32.6675 21.5 32.6675 21.5 32.6675C21.5 32.6675 21.5 32.6675 21.5 32.6675C21.5 32.6675 21.5 32.6675 21.5 32.6675C21.5 32.6675 21.5 32.6675 21.5 32.6675C21.5 32.6675 21.5 32.6675 21.5 32.6675C21.5 32.6675 21.5 32.6675 21.5 32.6675V32.6675C21.5 32.6675 21.5 32.6675 21.5 32.6675C21.5 32.6675 21.5 32.6676 21.5 32.6676C21.5 32.6676 21.5 32.6676 21.5 32.6676C21.5 32.6676 21.5 32.6676 21.5 32.6676C21.5 32.6676 21.5 32.6676 21.5 32.6676C21.5 32.6676 21.5 32.6676 21.5 32.6676C21.5 32.6676 21.5 32.6676 21.5 32.6676C21.5 32.6676 21.5 32.6676 21.5 32.6676C21.5 32.6676 21.5 32.6676 21.5 32.6676C21.5 32.6676 21.5 32.6676 21.5 32.6676C21.5 32.6676 21.5 32.6676 21.5 32.6676V32.6676C21.5 32.6676 21.5 32.6676 21.5 32.6676C21.5 32.6676 21.5 32.6676 21.5 32.6676C21.5 32.6676 21.5 32.6676 21.5 32.6676C21.5 32.6676 21.5 32.6676 21.5 32.6676C21.5 32.6676 21.5 32.6676 21.5 32.6676C21.5 32.6676 21.5 32.6676 21.5 32.6676C21.5 32.6676 21.5 32.6676 21.5 32.6676C21.5 32.6676 21.5 32.6676 21.5 32.6676C21.5 32.6676 21.5 32.6676 21.5 32.6676C21.5 32.6676 21.5 32.6676 21.5 32.6676C21.5 32.6676 21.5 32.6676 21.5 32.6676V32.6676C21.5 32.6676 21.5 32.6676 21.5 32.6676C21.5 32.6676 21.5 32.6676 21.5 32.6676C21.5 32.6676 21.5 32.6676 21.5 32.6676C21.5 32.6676 21.5 32.6676 21.5 32.6676C21.5 32.6676 21.5 32.6676 21.5 32.6677C21.5 32.6677 21.5 32.6677 21.5 32.6677C21.5 32.6677 21.5 32.6677 21.5 32.6677C21.5 32.6677 21.5 32.6677 21.5 32.6677C21.5 32.6677 21.5 32.6677 21.5 32.6677C21.5 32.6677 21.5 32.6677 21.5 32.6677V32.6677C21.5 32.6677 21.5 32.6677 21.5 32.6677C21.5 32.6677 21.5 32.6677 21.5 32.6677C21.5 32.6677 21.5 32.6677 21.5 32.6677C21.5 32.6677 21.5 32.6677 21.5 32.6677C21.5 32.6677 21.5 32.6677 21.5 32.6677C21.5 32.6677 21.5 32.6677 21.5 32.6677C21.5 32.6677 21.5 32.6677 21.5 32.6677C21.5 32.6677 21.5 32.6677 21.5 32.6677C21.5 32.6677 21.5 32.6677 21.5 32.6677C21.5 32.6677 21.5 32.6677 21.5 32.6677C21.5 32.6677 21.5 32.6677 21.5 32.6677V32.6677C21.5 32.6677 21.5 32.6677 21.5 32.6677C21.5 32.6677 21.5 32.6677 21.5 32.6677C21.5 32.6677 21.5 32.6677 21.5 32.6677C21.5 32.6677 21.5 32.6677 21.5 32.6677C21.5 32.6677 21.5 32.6677 21.5 32.6677C21.5 32.6677 21.5 32.6677 21.5 32.6677C21.5 32.6677 21.5 32.6677 21.5 32.6677C21.5 32.6677 21.5 32.6677 21.5 32.6677C21.5 32.6677 21.5 32.6677 21.5 32.6677C21.5 32.6677 21.5 32.6678 21.5 32.6678C21.5 32.6678 21.5 32.6678 21.5 32.6678V32.6678C21.5 32.6678 21.5 32.6678 21.5 32.6678C21.5 32.6678 21.5 32.6678 21.5 32.6678C21.5 32.6678 21.5 32.6678 21.5 32.6678C21.5 32.6678 21.5 32.6678 21.5 32.6678C21.5 32.6678 21.5 32.6678 21.5 32.6678C21.5 32.6678 21.5 32.6678 21.5 32.6678C21.5 32.6678 21.5 32.6678 21.5 32.6678C21.5 32.6678 21.5 32.6678 21.5 32.6678C21.5 32.6678 21.5 32.6678 21.5 32.6678C21.5 32.6678 21.5 32.6678 21.5 32.6678C21.5 32.6678 21.5 32.6678 21.5 32.6678V32.6678C21.5 32.6678 21.5 32.6678 21.5 32.6678C21.5 32.6678 21.5 32.6678 21.5 32.6678C21.5 32.6678 21.5 32.6678 21.5 32.6678C21.5 32.6678 21.5 32.6678 21.5 32.6678C21.5 32.6678 21.5 32.6678 21.5 32.6678C21.5 32.6678 21.5 32.6678 21.5 32.6678C21.5 32.6678 21.5 32.6678 21.5 32.6678C21.5 32.6678 21.5 32.6678 21.5 32.6678C21.5 32.6678 21.5 32.6678 21.5 32.6678C21.5 32.6678 21.5 32.6678 21.5 32.6678C21.5 32.6678 21.5 32.6678 21.5 32.6678V32.6678C21.5 32.6678 21.5 32.6679 21.5 32.6679C21.5 32.6679 21.5 32.6679 21.5 32.6679C21.5 32.6679 21.5 32.6679 21.5 32.6679C21.5 32.6679 21.5 32.6679 21.5 32.6679C21.5 32.6679 21.5 32.6679 21.5 32.6679C21.5 32.6679 21.5 32.6679 21.5 32.6679C21.5 32.6679 21.5 32.6679 21.5 32.6679C21.5 32.6679 21.5 32.6679 21.5 32.6679C21.5 32.6679 21.5 32.6679 21.5 32.6679C21.5 32.6679 21.5 32.6679 21.5 32.6679C21.5 32.6679 21.5 32.6679 21.5 32.6679V32.6679C21.5 32.6679 21.5 32.6679 21.5 32.6679C21.5 32.6679 21.5 32.6679 21.5 32.6679C21.5 32.6679 21.5 32.6679 21.5 32.6679C21.5 32.6679 21.5 32.6679 21.5 32.6679C21.5 32.6679 21.5 32.6679 21.5 32.6679C21.5 32.6679 21.5 32.6679 21.5 32.6679C21.5 32.6679 21.5 32.6679 21.5 32.6679C21.5 32.6679 21.5 32.6679 21.5 32.6679C21.5 32.6679 21.5 32.6679 21.5 32.6679C21.5 32.6679 21.5 32.6679 21.5 32.6679C21.5 32.6679 21.5 32.6679 21.5 32.6679V32.6679C21.5 32.6679 21.5 32.6679 21.5 32.6679C21.5 32.6679 21.5 32.6679 21.5 32.6679C21.5 32.6679 21.5 32.6679 21.5 32.6679C21.5 32.6679 21.5 32.6679 21.5 32.6679C21.5 32.668 21.5 32.668 21.5 32.668C21.5 32.668 21.5 32.668 21.5 32.668C21.5 32.668 21.5 32.668 21.5 32.668C21.5 32.668 21.5 32.668 21.5 32.668C21.5 32.668 21.5 32.668 21.5 32.668C21.5 32.668 21.5 32.668 21.5 32.668C21.5 32.668 21.5 32.668 21.5 32.668V32.668C21.5 32.668 21.5 32.668 21.5 32.668C21.5 32.668 21.5 32.668 21.5 32.668C21.5 32.668 21.5 32.668 21.5 32.668C21.5 32.668 21.5 32.668 21.5 32.668C21.5 32.668 21.5 32.668 21.5 32.668C21.5 32.668 21.5 32.668 21.5 32.668C21.5 32.668 21.5 32.668 21.5 32.668C21.5 32.668 21.5 32.668 21.5 32.668C21.5 32.668 21.5 32.668 21.5 32.668C21.5 32.668 21.5 32.668 21.5 32.668C21.5 32.668 21.5 32.668 21.5 32.668V32.668C21.5 32.668 21.5 32.668 21.5 32.668C21.5 32.668 21.5 32.668 21.5 32.668C21.5 32.668 21.5 32.668 21.5 32.668C21.5 32.668 21.5 32.668 21.5 32.668C21.5 32.668 21.5 32.668 21.5 32.668C21.5 32.668 21.5 32.668 21.5 32.668C21.5 32.668 21.5 32.668 21.5 32.668C21.5 32.668 21.5 32.6681 21.5 32.6681C21.5 32.6681 21.5 32.6681 21.5 32.6681C21.5 32.6681 21.5 32.6681 21.5 32.6681C21.5 32.6681 21.5 32.6681 21.5 32.6681V32.6681C21.5 32.6681 21.5 32.6681 21.5 32.6681C21.5 32.6681 21.5 32.6681 21.5 32.6681C21.5 32.6681 21.5 32.6681 21.5 32.6681C21.5 32.6681 21.5 32.6681 21.5 32.6681C21.5 32.6681 21.5 32.6681 21.5 32.6681C21.5 32.6681 21.5 32.6681 21.5 32.6681C21.5 32.6681 21.5 32.6681 21.5 32.6681C21.5 32.6681 21.5 32.6681 21.5 32.6681C21.5 32.6681 21.5 32.6681 21.5 32.6681C21.5 32.6681 21.5 32.6681 21.5 32.6681V32.6681C21.5 32.6681 21.5 32.6681 21.5 32.6681C21.5 32.6681 21.5 32.6681 21.5 32.6681C21.5 32.6681 21.5 32.6681 21.5 32.6681C21.5 32.6681 21.5 32.6681 21.5 32.6681C21.5 32.6681 21.5 32.6681 21.5 32.6681C21.5 32.6681 21.5 32.6681 21.5 32.6681C21.5 32.6681 21.5 32.6681 21.5 32.6681C21.5 32.6681 21.5 32.6681 21.5 32.6681C21.5 32.6681 21.5 32.6681 21.5 32.6681C21.5 32.6681 21.5 32.6681 21.5 32.6681C21.5 32.6681 21.5 32.6681 21.5 32.6681V32.6681C21.5 32.6682 21.5 32.6682 21.5 32.6682C21.5 32.6682 21.5 32.6682 21.5 32.6682C21.5 32.6682 21.5 32.6682 21.5 32.6682C21.5 32.6682 21.5 32.6682 21.5 32.6682C21.5 32.6682 21.5 32.6682 21.5 32.6682C21.5 32.6682 21.5 32.6682 21.5 32.6682C21.5 32.6682 21.5 32.6682 21.5 32.6682C21.5 32.6682 21.5 32.6682 21.5 32.6682C21.5 32.6682 21.5 32.6682 21.5 32.6682C21.5 32.6682 21.5 32.6682 21.5 32.6682C21.5 32.6682 21.5 32.6682 21.5 32.6682V32.6682C21.5 32.6682 21.5 32.6682 21.5 32.6682C21.5 32.6682 21.5 32.6682 21.5 32.6682C21.5 32.6682 21.5 32.6682 21.5 32.6682C21.5 32.6682 21.5 32.6682 21.5 32.6682C21.5 32.6682 21.5 32.6682 21.5 32.6682C21.5 32.6682 21.5 32.6682 21.5 32.6682C21.5 32.6682 21.5 32.6682 21.5 32.6682C21.5 32.6682 21.5 32.6682 21.5 32.6682C21.5 32.6682 21.5 32.6682 21.5 32.6682C21.5 32.6682 21.5 32.6682 21.5 32.6682C21.5 32.6682 21.5 32.6682 21.5 32.6682V32.6682C21.5 32.6682 21.5 32.6682 21.5 32.6682C21.5 32.6682 21.5 32.6682 21.5 32.6682C21.5 32.6682 21.5 32.6682 21.5 32.6682C21.5 32.6683 21.5 32.6683 21.5 32.6683C21.5 32.6683 21.5 32.6683 21.5 32.6683C21.5 32.6683 21.5 32.6683 21.5 32.6683C21.5 32.6683 21.5 32.6683 21.5 32.6683C21.5 32.6683 21.5 32.6683 21.5 32.6683C21.5 32.6683 21.5 32.6683 21.5 32.6683C21.5 32.6683 21.5 32.6683 21.5 32.6683C21.5 32.6683 21.5 32.6683 21.5 32.6683V32.6683C21.5 32.6683 21.5 32.6683 21.5 32.6683C21.5 32.6683 21.5 32.6683 21.5 32.6683C21.5 32.6683 21.5 32.6683 21.5 32.6683C21.5 32.6683 21.5 32.6683 21.5 32.6683C21.5 32.6683 21.5 32.6683 21.5 32.6683C21.5 32.6683 21.5 32.6683 21.5 32.6683C21.5 32.6683 21.5 32.6683 21.5 32.6683C21.5 32.6683 21.5 32.6683 21.5 32.6683C21.5 32.6683 21.5 32.6683 21.5 32.6683C21.5 32.6683 21.5 32.6683 21.5 32.6683C21.5 32.6683 21.5 32.6683 21.5 32.6683V32.6683C21.5 32.6683 21.5 32.6683 21.5 32.6683C21.5 32.6683 21.5 32.6683 21.5 32.6683C21.5 32.6683 21.5 32.6683 21.5 32.6683C21.5 32.6683 21.5 32.6683 21.5 32.6683C21.5 32.6683 21.5 32.6683 21.5 32.6683C21.5 32.6683 21.5 32.6683 21.5 32.6683C21.5 32.6684 21.5 32.6684 21.5 32.6684C21.5 32.6684 21.5 32.6684 21.5 32.6684C21.5 32.6684 21.5 32.6684 21.5 32.6684C21.5 32.6684 21.5 32.6684 21.5 32.6684C21.5 32.6684 21.5 32.6684 21.5 32.6684V32.6684C21.5 32.6684 21.5 32.6684 21.5 32.6684C21.5 32.6684 21.5 32.6684 21.5 32.6684C21.5 32.6684 21.5 32.6684 21.5 32.6684C21.5 32.6684 21.5 32.6684 21.5 32.6684C21.5 32.6684 21.5 32.6684 21.5 32.6684C21.5 32.6684 21.5 32.6684 21.5 32.6684C21.5 32.6684 21.5 32.6684 21.5 32.6684C21.5 32.6684 21.5 32.6684 21.5 32.6684C21.5 32.6684 21.5 32.6684 21.5 32.6684C21.5 32.6684 21.5 32.6684 21.5 32.6684C21.5 32.6684 21.5 32.6684 21.5 32.6684V32.6684C21.5 32.6684 21.5 32.6684 21.5 32.6684C21.5 32.6684 21.5 32.6684 21.5 32.6684C21.5 32.6684 21.5 32.6684 21.5 32.6684C21.5 32.6684 21.5 32.6684 21.5 32.6684C21.5 32.6684 21.5 32.6684 21.5 32.6684C21.5 32.6684 21.5 32.6684 21.5 32.6684C21.5 32.6684 21.5 32.6684 21.5 32.6684C21.5 32.6684 21.5 32.6684 21.5 32.6684C21.5 32.6684 21.5 32.6684 21.5 32.6684C21.5 32.6684 21.5 32.6684 21.5 32.6685C21.5 32.6685 21.5 32.6685 21.5 32.6685V32.6685C21.5 32.6685 21.5 32.6685 21.5 32.6685C21.5 32.6685 21.5 32.6685 21.5 32.6685C21.5 32.6685 21.5 32.6685 21.5 32.6685C21.5 32.6685 21.5 32.6685 21.5 32.6685C21.5 32.6685 21.5 32.6685 21.5 32.6685C21.5 32.6685 21.5 32.6685 21.5 32.6685C21.5 32.6685 21.5 32.6685 21.5 32.6685C21.5 32.6685 21.5 32.6685 21.5 32.6685C21.5 32.6685 21.5 32.6685 21.5 32.6685C21.5 32.6685 21.5 32.6685 21.5 32.6685C21.5 32.6685 21.5 32.6685 21.5 32.6685V32.6685C21.5 32.6685 21.5 32.6685 21.5 32.6685C21.5 32.6685 21.5 32.6685 21.5 32.6685C21.5 32.6685 21.5 32.6685 21.5 32.6685C21.5 32.6685 21.5 32.6685 21.5 32.6685C21.5 32.6685 21.5 32.6685 21.5 32.6685C21.5 32.6685 21.5 32.6685 21.5 32.6685C21.5 32.6685 21.5 32.6685 21.5 32.6685C21.5 32.6685 21.5 32.6685 21.5 32.6685C21.5 32.6685 21.5 32.6685 21.5 32.6685C21.5 32.6685 21.5 32.6685 21.5 32.6685C21.5 32.6685 21.5 32.6685 21.5 32.6685V32.6685C21.5 32.6685 21.5 32.6685 21.5 32.6685C21.5 32.6686 21.5 32.6686 21.5 32.6686C21.5 32.6686 21.5 32.6686 21.5 32.6686C21.5 32.6686 21.5 32.6686 21.5 32.6686C21.5 32.6686 21.5 32.6686 21.5 32.6686H22.5ZM3.08416 31.8831L8.69191 10.9547L7.72598 10.6959L2.11824 31.6243L3.08416 31.8831ZM3.90912 33.312C3.66373 33.2462 3.41209 33.0421 3.24074 32.7453C3.06938 32.4485 3.01841 32.1285 3.08416 31.8831L2.11824 31.6243C1.96831 32.1838 2.10412 32.7766 2.37471 33.2453C2.6453 33.7139 3.09076 34.128 3.6503 34.2779L3.90912 33.312ZM5.519 33.7433L3.90912 33.312L3.6503 34.2779L5.26018 34.7092L5.519 33.7433ZM6.94787 32.9184C6.88212 33.1638 6.67797 33.4154 6.38118 33.5867C6.0844 33.7581 5.7644 33.8091 5.519 33.7433L5.26019 34.7092C5.81973 34.8592 6.41251 34.7234 6.88118 34.4528C7.34986 34.1822 7.76387 33.7367 7.9138 33.1772L6.94787 32.9184ZM12.5556 11.99L6.94787 32.9184L7.9138 33.1772L13.5215 12.2488L12.5556 11.99ZM11.7307 10.5611C11.9761 10.6269 12.2277 10.831 12.399 11.1278C12.5704 11.4246 12.6214 11.7446 12.5556 11.99L13.5215 12.2488C13.6715 11.6892 13.5357 11.0965 13.2651 10.6278C12.9945 10.1591 12.549 9.7451 11.9895 9.59517L11.7307 10.5611ZM10.1208 10.1297L11.7307 10.5611L11.9895 9.59517L10.3796 9.16381L10.1208 10.1297ZM8.69191 10.9547C8.75766 10.7093 8.96181 10.4577 9.2586 10.2863C9.55538 10.115 9.87538 10.064 10.1208 10.1297L10.3796 9.16381C9.82005 9.01388 9.22727 9.14969 8.7586 9.42028C8.28992 9.69087 7.87591 10.1363 7.72598 10.6959L8.69191 10.9547Z" fill="#FA385D" mask="url(#path-1-outside-1)"/>
</svg>
