<svg width="80" height="80" viewBox="0 0 80 80" fill="none" xmlns="http://www.w3.org/2000/svg">
<rect x="16" y="29" width="41" height="27" fill="#3E99ED"/>
<path fill-rule="evenodd" clip-rule="evenodd" d="M50.8094 15.7919C50.8094 23.1952 56.8198 29.1968 64.2339 29.1968C65.0503 29.1928 65.8646 29.1144 66.6667 28.9626V55.5383C66.6667 66.7187 60.0717 73.3334 48.8749 73.3334H24.4879C13.2618 73.3334 6.66675 66.7187 6.66675 55.5383V31.187C6.66675 20.0065 13.2618 13.3334 24.4879 13.3334H51.0439C50.8863 14.1434 50.8078 14.9668 50.8094 15.7919ZM43.8333 49.6553L53.3595 37.3627V37.3041C54.175 36.2083 53.9669 34.663 52.8905 33.8212C52.3695 33.419 51.7074 33.2449 51.0556 33.3387C50.4038 33.4324 49.8179 33.7861 49.4318 34.3188L41.4005 44.6505L32.2554 37.4505C31.7333 37.0437 31.0691 36.8641 30.4128 36.9522C29.7565 37.0403 29.1634 37.3887 28.7674 37.9188L18.9188 50.6212C18.5726 51.0527 18.3863 51.5903 18.3912 52.1431C18.3341 53.2605 19.0397 54.2755 20.108 54.6127C21.1764 54.95 22.338 54.5244 22.9345 53.5773L31.1709 42.9236L40.316 50.0944C40.8361 50.5137 41.5047 50.7038 42.1681 50.621C42.8314 50.5382 43.4326 50.1896 43.8333 49.6553Z" fill="#A3D1F8"/>
<ellipse cx="65.0001" cy="15" rx="8.33334" ry="8.33333" fill="#3E99ED"/>
<ellipse cx="65.0001" cy="15" rx="8.33334" ry="8.33333" fill="url(#paint0_linear)"/>
<defs>
<linearGradient id="paint0_linear" x1="65.0001" y1="6.66669" x2="65.0001" y2="23.3333" gradientUnits="userSpaceOnUse">
<stop stop-color="#F8DB73"/>
<stop offset="1" stop-color="#F7BB4E"/>
</linearGradient>
</defs>
</svg>
