<svg width="80" height="80" viewBox="0 0 80 80" fill="none" xmlns="http://www.w3.org/2000/svg">
<path opacity="0.4" d="M62.6961 30.07C61.1911 30.07 59.1976 30.0366 56.7156 30.0366C50.6624 30.0366 45.6852 25.0266 45.6852 18.9166V8.19663C45.6852 7.35329 45.0119 6.66663 44.1769 6.66663H26.5455C18.3173 6.66663 11.6667 13.42 11.6667 21.6966V57.6133C11.6667 66.2966 18.6342 73.3333 27.232 73.3333H53.4877C61.6862 73.3333 68.3334 66.6233 68.3334 58.34V31.57C68.3334 30.7233 67.6634 30.04 66.8251 30.0433C65.4158 30.0533 63.7259 30.07 62.6961 30.07Z" fill="#3E99ED"/>
<path d="M53.6134 8.55753C52.6167 7.52087 50.8767 8.2342 50.8767 9.67087V18.4609C50.8767 22.1475 53.9134 25.1809 57.6 25.1809C59.9234 25.2075 63.15 25.2142 65.89 25.2075C67.2934 25.2042 68.0067 23.5275 67.0334 22.5142C63.5167 18.8575 57.22 12.3042 53.6134 8.55753Z" fill="#3E99ED"/>
<path d="M53.6134 8.55753C52.6167 7.52087 50.8767 8.2342 50.8767 9.67087V18.4609C50.8767 22.1475 53.9134 25.1809 57.6 25.1809C59.9234 25.2075 63.15 25.2142 65.89 25.2075C67.2934 25.2042 68.0067 23.5275 67.0334 22.5142C63.5167 18.8575 57.22 12.3042 53.6134 8.55753Z" fill="url(#paint0_linear)"/>
<path fill-rule="evenodd" clip-rule="evenodd" d="M29.9131 37.9586H41.1964C42.5664 37.9586 43.6798 36.8486 43.6798 35.4786C43.6798 34.1086 42.5664 32.9952 41.1964 32.9952H29.9131C28.5431 32.9952 27.4331 34.1086 27.4331 35.4786C27.4331 36.8486 28.5431 37.9586 29.9131 37.9586ZM29.9135 54.6058H48.0601C49.4301 54.6058 50.5435 53.4958 50.5435 52.1258C50.5435 50.7558 49.4301 49.6425 48.0601 49.6425H29.9135C28.5435 49.6425 27.4335 50.7558 27.4335 52.1258C27.4335 53.4958 28.5435 54.6058 29.9135 54.6058Z" fill="#3E99ED"/>
<defs>
<linearGradient id="paint0_linear" x1="59.1795" y1="8.06604" x2="59.1795" y2="25.2099" gradientUnits="userSpaceOnUse">
<stop stop-color="#F8DB73"/>
<stop offset="1" stop-color="#F7BB4E"/>
</linearGradient>
</defs>
</svg>
